<?xml version="1.0" encoding="utf-8" standalone="no"?>
<!DOCTYPE svg PUBLIC "-//W3C//DTD SVG 1.1//EN"
  "http://www.w3.org/Graphics/SVG/1.1/DTD/svg11.dtd">
<svg xmlns:xlink="http://www.w3.org/1999/xlink" width="1127.276406pt" height="418.039687pt" viewBox="0 0 1127.276406 418.039687" xmlns="http://www.w3.org/2000/svg" version="1.1">
 <metadata>
  <rdf:RDF xmlns:dc="http://purl.org/dc/elements/1.1/" xmlns:cc="http://creativecommons.org/ns#" xmlns:rdf="http://www.w3.org/1999/02/22-rdf-syntax-ns#">
   <cc:Work>
    <dc:type rdf:resource="http://purl.org/dc/dcmitype/StillImage"/>
    <dc:date>2025-09-12T14:22:39.421980</dc:date>
    <dc:format>image/svg+xml</dc:format>
    <dc:creator>
     <cc:Agent>
      <dc:title>Matplotlib v3.10.1, https://matplotlib.org/</dc:title>
     </cc:Agent>
    </dc:creator>
   </cc:Work>
  </rdf:RDF>
 </metadata>
 <defs>
  <style type="text/css">*{stroke-linejoin: round; stroke-linecap: butt}</style>
 </defs>
 <g id="figure_1">
  <g id="patch_1">
   <path d="M 0 418.039687 
L 1127.276406 418.039687 
L 1127.276406 0 
L 0 0 
z
" style="fill: #ffffff"/>
  </g>
  <g id="axes_1">
   <g id="patch_2">
    <path d="M 48.715 374.22 
L 539.8675 374.22 
L 539.8675 67.49625 
L 48.715 67.49625 
z
" style="fill: #ffffff"/>
   </g>
   <g id="matplotlib.axis_1">
    <g id="xtick_1">
     <g id="line2d_1">
      <path d="M 48.715 374.22 
L 48.715 67.49625 
" clip-path="url(#p3ecd7f53a0)" style="fill: none; stroke: #cccccc; stroke-opacity: 0.3; stroke-width: 1.5; stroke-linecap: round"/>
     </g>
     <g id="text_1">
      <!-- 1 -->
      <g style="fill: #262626" transform="translate(45.934531 393.877812) scale(0.1 -0.1)">
       <defs>
        <path id="ArialMT-31" d="M 2384 0 
L 1822 0 
L 1822 3584 
Q 1619 3391 1289 3197 
Q 959 3003 697 2906 
L 697 3450 
Q 1169 3672 1522 3987 
Q 1875 4303 2022 4600 
L 2384 4600 
L 2384 0 
z
" transform="scale(0.015625)"/>
       </defs>
       <use xlink:href="#ArialMT-31"/>
      </g>
     </g>
    </g>
    <g id="xtick_2">
     <g id="line2d_2">
      <path d="M 93.365227 374.22 
L 93.365227 67.49625 
" clip-path="url(#p3ecd7f53a0)" style="fill: none; stroke: #cccccc; stroke-opacity: 0.3; stroke-width: 1.5; stroke-linecap: round"/>
     </g>
     <g id="text_2">
      <!-- 10 -->
      <g style="fill: #262626" transform="translate(87.80429 393.877812) scale(0.1 -0.1)">
       <defs>
        <path id="ArialMT-30" d="M 266 2259 
Q 266 3072 433 3567 
Q 600 4063 929 4331 
Q 1259 4600 1759 4600 
Q 2128 4600 2406 4451 
Q 2684 4303 2865 4023 
Q 3047 3744 3150 3342 
Q 3253 2941 3253 2259 
Q 3253 1453 3087 958 
Q 2922 463 2592 192 
Q 2263 -78 1759 -78 
Q 1097 -78 719 397 
Q 266 969 266 2259 
z
M 844 2259 
Q 844 1131 1108 757 
Q 1372 384 1759 384 
Q 2147 384 2411 759 
Q 2675 1134 2675 2259 
Q 2675 3391 2411 3762 
Q 2147 4134 1753 4134 
Q 1366 4134 1134 3806 
Q 844 3388 844 2259 
z
" transform="scale(0.015625)"/>
       </defs>
       <use xlink:href="#ArialMT-31"/>
       <use xlink:href="#ArialMT-30" transform="translate(55.615234 0)"/>
      </g>
     </g>
    </g>
    <g id="xtick_3">
     <g id="line2d_3">
      <path d="M 138.015455 374.22 
L 138.015455 67.49625 
" clip-path="url(#p3ecd7f53a0)" style="fill: none; stroke: #cccccc; stroke-opacity: 0.3; stroke-width: 1.5; stroke-linecap: round"/>
     </g>
     <g id="text_3">
      <!-- 19 -->
      <g style="fill: #262626" transform="translate(132.454517 393.877812) scale(0.1 -0.1)">
       <defs>
        <path id="ArialMT-39" d="M 350 1059 
L 891 1109 
Q 959 728 1153 556 
Q 1347 384 1650 384 
Q 1909 384 2104 503 
Q 2300 622 2425 820 
Q 2550 1019 2634 1356 
Q 2719 1694 2719 2044 
Q 2719 2081 2716 2156 
Q 2547 1888 2255 1720 
Q 1963 1553 1622 1553 
Q 1053 1553 659 1965 
Q 266 2378 266 3053 
Q 266 3750 677 4175 
Q 1088 4600 1706 4600 
Q 2153 4600 2523 4359 
Q 2894 4119 3086 3673 
Q 3278 3228 3278 2384 
Q 3278 1506 3087 986 
Q 2897 466 2520 194 
Q 2144 -78 1638 -78 
Q 1100 -78 759 220 
Q 419 519 350 1059 
z
M 2653 3081 
Q 2653 3566 2395 3850 
Q 2138 4134 1775 4134 
Q 1400 4134 1122 3828 
Q 844 3522 844 3034 
Q 844 2597 1108 2323 
Q 1372 2050 1759 2050 
Q 2150 2050 2401 2323 
Q 2653 2597 2653 3081 
z
" transform="scale(0.015625)"/>
       </defs>
       <use xlink:href="#ArialMT-31"/>
       <use xlink:href="#ArialMT-39" transform="translate(55.615234 0)"/>
      </g>
     </g>
    </g>
    <g id="xtick_4">
     <g id="line2d_4">
      <path d="M 182.665682 374.22 
L 182.665682 67.49625 
" clip-path="url(#p3ecd7f53a0)" style="fill: none; stroke: #cccccc; stroke-opacity: 0.3; stroke-width: 1.5; stroke-linecap: round"/>
     </g>
     <g id="text_4">
      <!-- 28 -->
      <g style="fill: #262626" transform="translate(177.104744 393.877812) scale(0.1 -0.1)">
       <defs>
        <path id="ArialMT-32" d="M 3222 541 
L 3222 0 
L 194 0 
Q 188 203 259 391 
Q 375 700 629 1000 
Q 884 1300 1366 1694 
Q 2113 2306 2375 2664 
Q 2638 3022 2638 3341 
Q 2638 3675 2398 3904 
Q 2159 4134 1775 4134 
Q 1369 4134 1125 3890 
Q 881 3647 878 3216 
L 300 3275 
Q 359 3922 746 4261 
Q 1134 4600 1788 4600 
Q 2447 4600 2831 4234 
Q 3216 3869 3216 3328 
Q 3216 3053 3103 2787 
Q 2991 2522 2730 2228 
Q 2469 1934 1863 1422 
Q 1356 997 1212 845 
Q 1069 694 975 541 
L 3222 541 
z
" transform="scale(0.015625)"/>
        <path id="ArialMT-38" d="M 1131 2484 
Q 781 2613 612 2850 
Q 444 3088 444 3419 
Q 444 3919 803 4259 
Q 1163 4600 1759 4600 
Q 2359 4600 2725 4251 
Q 3091 3903 3091 3403 
Q 3091 3084 2923 2848 
Q 2756 2613 2416 2484 
Q 2838 2347 3058 2040 
Q 3278 1734 3278 1309 
Q 3278 722 2862 322 
Q 2447 -78 1769 -78 
Q 1091 -78 675 323 
Q 259 725 259 1325 
Q 259 1772 486 2073 
Q 713 2375 1131 2484 
z
M 1019 3438 
Q 1019 3113 1228 2906 
Q 1438 2700 1772 2700 
Q 2097 2700 2305 2904 
Q 2513 3109 2513 3406 
Q 2513 3716 2298 3927 
Q 2084 4138 1766 4138 
Q 1444 4138 1231 3931 
Q 1019 3725 1019 3438 
z
M 838 1322 
Q 838 1081 952 856 
Q 1066 631 1291 507 
Q 1516 384 1775 384 
Q 2178 384 2440 643 
Q 2703 903 2703 1303 
Q 2703 1709 2433 1975 
Q 2163 2241 1756 2241 
Q 1359 2241 1098 1978 
Q 838 1716 838 1322 
z
" transform="scale(0.015625)"/>
       </defs>
       <use xlink:href="#ArialMT-32"/>
       <use xlink:href="#ArialMT-38" transform="translate(55.615234 0)"/>
      </g>
     </g>
    </g>
    <g id="xtick_5">
     <g id="line2d_5">
      <path d="M 227.315909 374.22 
L 227.315909 67.49625 
" clip-path="url(#p3ecd7f53a0)" style="fill: none; stroke: #cccccc; stroke-opacity: 0.3; stroke-width: 1.5; stroke-linecap: round"/>
     </g>
     <g id="text_5">
      <!-- 37 -->
      <g style="fill: #262626" transform="translate(221.754972 393.877812) scale(0.1 -0.1)">
       <defs>
        <path id="ArialMT-33" d="M 269 1209 
L 831 1284 
Q 928 806 1161 595 
Q 1394 384 1728 384 
Q 2125 384 2398 659 
Q 2672 934 2672 1341 
Q 2672 1728 2419 1979 
Q 2166 2231 1775 2231 
Q 1616 2231 1378 2169 
L 1441 2663 
Q 1497 2656 1531 2656 
Q 1891 2656 2178 2843 
Q 2466 3031 2466 3422 
Q 2466 3731 2256 3934 
Q 2047 4138 1716 4138 
Q 1388 4138 1169 3931 
Q 950 3725 888 3313 
L 325 3413 
Q 428 3978 793 4289 
Q 1159 4600 1703 4600 
Q 2078 4600 2393 4439 
Q 2709 4278 2876 4000 
Q 3044 3722 3044 3409 
Q 3044 3113 2884 2869 
Q 2725 2625 2413 2481 
Q 2819 2388 3044 2092 
Q 3269 1797 3269 1353 
Q 3269 753 2831 336 
Q 2394 -81 1725 -81 
Q 1122 -81 723 278 
Q 325 638 269 1209 
z
" transform="scale(0.015625)"/>
        <path id="ArialMT-37" d="M 303 3981 
L 303 4522 
L 3269 4522 
L 3269 4084 
Q 2831 3619 2401 2847 
Q 1972 2075 1738 1259 
Q 1569 684 1522 0 
L 944 0 
Q 953 541 1156 1306 
Q 1359 2072 1739 2783 
Q 2119 3494 2547 3981 
L 303 3981 
z
" transform="scale(0.015625)"/>
       </defs>
       <use xlink:href="#ArialMT-33"/>
       <use xlink:href="#ArialMT-37" transform="translate(55.615234 0)"/>
      </g>
     </g>
    </g>
    <g id="xtick_6">
     <g id="line2d_6">
      <path d="M 271.966136 374.22 
L 271.966136 67.49625 
" clip-path="url(#p3ecd7f53a0)" style="fill: none; stroke: #cccccc; stroke-opacity: 0.3; stroke-width: 1.5; stroke-linecap: round"/>
     </g>
     <g id="text_6">
      <!-- 46 -->
      <g style="fill: #262626" transform="translate(266.405199 393.877812) scale(0.1 -0.1)">
       <defs>
        <path id="ArialMT-34" d="M 2069 0 
L 2069 1097 
L 81 1097 
L 81 1613 
L 2172 4581 
L 2631 4581 
L 2631 1613 
L 3250 1613 
L 3250 1097 
L 2631 1097 
L 2631 0 
L 2069 0 
z
M 2069 1613 
L 2069 3678 
L 634 1613 
L 2069 1613 
z
" transform="scale(0.015625)"/>
        <path id="ArialMT-36" d="M 3184 3459 
L 2625 3416 
Q 2550 3747 2413 3897 
Q 2184 4138 1850 4138 
Q 1581 4138 1378 3988 
Q 1113 3794 959 3422 
Q 806 3050 800 2363 
Q 1003 2672 1297 2822 
Q 1591 2972 1913 2972 
Q 2475 2972 2870 2558 
Q 3266 2144 3266 1488 
Q 3266 1056 3080 686 
Q 2894 316 2569 119 
Q 2244 -78 1831 -78 
Q 1128 -78 684 439 
Q 241 956 241 2144 
Q 241 3472 731 4075 
Q 1159 4600 1884 4600 
Q 2425 4600 2770 4297 
Q 3116 3994 3184 3459 
z
M 888 1484 
Q 888 1194 1011 928 
Q 1134 663 1356 523 
Q 1578 384 1822 384 
Q 2178 384 2434 671 
Q 2691 959 2691 1453 
Q 2691 1928 2437 2201 
Q 2184 2475 1800 2475 
Q 1419 2475 1153 2201 
Q 888 1928 888 1484 
z
" transform="scale(0.015625)"/>
       </defs>
       <use xlink:href="#ArialMT-34"/>
       <use xlink:href="#ArialMT-36" transform="translate(55.615234 0)"/>
      </g>
     </g>
    </g>
    <g id="xtick_7">
     <g id="line2d_7">
      <path d="M 316.616364 374.22 
L 316.616364 67.49625 
" clip-path="url(#p3ecd7f53a0)" style="fill: none; stroke: #cccccc; stroke-opacity: 0.3; stroke-width: 1.5; stroke-linecap: round"/>
     </g>
     <g id="text_7">
      <!-- 55 -->
      <g style="fill: #262626" transform="translate(311.055426 393.877812) scale(0.1 -0.1)">
       <defs>
        <path id="ArialMT-35" d="M 266 1200 
L 856 1250 
Q 922 819 1161 601 
Q 1400 384 1738 384 
Q 2144 384 2425 690 
Q 2706 997 2706 1503 
Q 2706 1984 2436 2262 
Q 2166 2541 1728 2541 
Q 1456 2541 1237 2417 
Q 1019 2294 894 2097 
L 366 2166 
L 809 4519 
L 3088 4519 
L 3088 3981 
L 1259 3981 
L 1013 2750 
Q 1425 3038 1878 3038 
Q 2478 3038 2890 2622 
Q 3303 2206 3303 1553 
Q 3303 931 2941 478 
Q 2500 -78 1738 -78 
Q 1113 -78 717 272 
Q 322 622 266 1200 
z
" transform="scale(0.015625)"/>
       </defs>
       <use xlink:href="#ArialMT-35"/>
       <use xlink:href="#ArialMT-35" transform="translate(55.615234 0)"/>
      </g>
     </g>
    </g>
    <g id="xtick_8">
     <g id="line2d_8">
      <path d="M 361.266591 374.22 
L 361.266591 67.49625 
" clip-path="url(#p3ecd7f53a0)" style="fill: none; stroke: #cccccc; stroke-opacity: 0.3; stroke-width: 1.5; stroke-linecap: round"/>
     </g>
     <g id="text_8">
      <!-- 64 -->
      <g style="fill: #262626" transform="translate(355.705653 393.877812) scale(0.1 -0.1)">
       <use xlink:href="#ArialMT-36"/>
       <use xlink:href="#ArialMT-34" transform="translate(55.615234 0)"/>
      </g>
     </g>
    </g>
    <g id="xtick_9">
     <g id="line2d_9">
      <path d="M 405.916818 374.22 
L 405.916818 67.49625 
" clip-path="url(#p3ecd7f53a0)" style="fill: none; stroke: #cccccc; stroke-opacity: 0.3; stroke-width: 1.5; stroke-linecap: round"/>
     </g>
     <g id="text_9">
      <!-- 73 -->
      <g style="fill: #262626" transform="translate(400.355881 393.877812) scale(0.1 -0.1)">
       <use xlink:href="#ArialMT-37"/>
       <use xlink:href="#ArialMT-33" transform="translate(55.615234 0)"/>
      </g>
     </g>
    </g>
    <g id="xtick_10">
     <g id="line2d_10">
      <path d="M 450.567045 374.22 
L 450.567045 67.49625 
" clip-path="url(#p3ecd7f53a0)" style="fill: none; stroke: #cccccc; stroke-opacity: 0.3; stroke-width: 1.5; stroke-linecap: round"/>
     </g>
     <g id="text_10">
      <!-- 82 -->
      <g style="fill: #262626" transform="translate(445.006108 393.877812) scale(0.1 -0.1)">
       <use xlink:href="#ArialMT-38"/>
       <use xlink:href="#ArialMT-32" transform="translate(55.615234 0)"/>
      </g>
     </g>
    </g>
    <g id="xtick_11">
     <g id="line2d_11">
      <path d="M 495.217273 374.22 
L 495.217273 67.49625 
" clip-path="url(#p3ecd7f53a0)" style="fill: none; stroke: #cccccc; stroke-opacity: 0.3; stroke-width: 1.5; stroke-linecap: round"/>
     </g>
     <g id="text_11">
      <!-- 91 -->
      <g style="fill: #262626" transform="translate(489.656335 393.877812) scale(0.1 -0.1)">
       <use xlink:href="#ArialMT-39"/>
       <use xlink:href="#ArialMT-31" transform="translate(55.615234 0)"/>
      </g>
     </g>
    </g>
    <g id="xtick_12">
     <g id="line2d_12">
      <path d="M 539.8675 374.22 
L 539.8675 67.49625 
" clip-path="url(#p3ecd7f53a0)" style="fill: none; stroke: #cccccc; stroke-opacity: 0.3; stroke-width: 1.5; stroke-linecap: round"/>
     </g>
     <g id="text_12">
      <!-- 100 -->
      <g style="fill: #262626" transform="translate(531.526094 393.877812) scale(0.1 -0.1)">
       <use xlink:href="#ArialMT-31"/>
       <use xlink:href="#ArialMT-30" transform="translate(55.615234 0)"/>
       <use xlink:href="#ArialMT-30" transform="translate(111.230469 0)"/>
      </g>
     </g>
    </g>
    <g id="xtick_13">
     <g id="line2d_13">
      <path d="M 539.8675 374.22 
L 539.8675 67.49625 
" clip-path="url(#p3ecd7f53a0)" style="fill: none; stroke: #cccccc; stroke-opacity: 0.3; stroke-width: 1.5; stroke-linecap: round"/>
     </g>
     <g id="text_13">
      <!-- 100 -->
      <g style="fill: #262626" transform="translate(531.526094 393.877812) scale(0.1 -0.1)">
       <use xlink:href="#ArialMT-31"/>
       <use xlink:href="#ArialMT-30" transform="translate(55.615234 0)"/>
       <use xlink:href="#ArialMT-30" transform="translate(111.230469 0)"/>
      </g>
     </g>
    </g>
    <g id="text_14">
     <!-- Round -->
     <g style="fill: #262626" transform="translate(276.611875 408.454687) scale(0.12 -0.12)">
      <defs>
       <path id="ArialMT-52" d="M 503 0 
L 503 4581 
L 2534 4581 
Q 3147 4581 3465 4457 
Q 3784 4334 3975 4021 
Q 4166 3709 4166 3331 
Q 4166 2844 3850 2509 
Q 3534 2175 2875 2084 
Q 3116 1969 3241 1856 
Q 3506 1613 3744 1247 
L 4541 0 
L 3778 0 
L 3172 953 
Q 2906 1366 2734 1584 
Q 2563 1803 2427 1890 
Q 2291 1978 2150 2013 
Q 2047 2034 1813 2034 
L 1109 2034 
L 1109 0 
L 503 0 
z
M 1109 2559 
L 2413 2559 
Q 2828 2559 3062 2645 
Q 3297 2731 3419 2920 
Q 3541 3109 3541 3331 
Q 3541 3656 3305 3865 
Q 3069 4075 2559 4075 
L 1109 4075 
L 1109 2559 
z
" transform="scale(0.015625)"/>
       <path id="ArialMT-6f" d="M 213 1659 
Q 213 2581 725 3025 
Q 1153 3394 1769 3394 
Q 2453 3394 2887 2945 
Q 3322 2497 3322 1706 
Q 3322 1066 3130 698 
Q 2938 331 2570 128 
Q 2203 -75 1769 -75 
Q 1072 -75 642 372 
Q 213 819 213 1659 
z
M 791 1659 
Q 791 1022 1069 705 
Q 1347 388 1769 388 
Q 2188 388 2466 706 
Q 2744 1025 2744 1678 
Q 2744 2294 2464 2611 
Q 2184 2928 1769 2928 
Q 1347 2928 1069 2612 
Q 791 2297 791 1659 
z
" transform="scale(0.015625)"/>
       <path id="ArialMT-75" d="M 2597 0 
L 2597 488 
Q 2209 -75 1544 -75 
Q 1250 -75 995 37 
Q 741 150 617 320 
Q 494 491 444 738 
Q 409 903 409 1263 
L 409 3319 
L 972 3319 
L 972 1478 
Q 972 1038 1006 884 
Q 1059 663 1231 536 
Q 1403 409 1656 409 
Q 1909 409 2131 539 
Q 2353 669 2445 892 
Q 2538 1116 2538 1541 
L 2538 3319 
L 3100 3319 
L 3100 0 
L 2597 0 
z
" transform="scale(0.015625)"/>
       <path id="ArialMT-6e" d="M 422 0 
L 422 3319 
L 928 3319 
L 928 2847 
Q 1294 3394 1984 3394 
Q 2284 3394 2536 3286 
Q 2788 3178 2913 3003 
Q 3038 2828 3088 2588 
Q 3119 2431 3119 2041 
L 3119 0 
L 2556 0 
L 2556 2019 
Q 2556 2363 2490 2533 
Q 2425 2703 2258 2804 
Q 2091 2906 1866 2906 
Q 1506 2906 1245 2678 
Q 984 2450 984 1813 
L 984 0 
L 422 0 
z
" transform="scale(0.015625)"/>
       <path id="ArialMT-64" d="M 2575 0 
L 2575 419 
Q 2259 -75 1647 -75 
Q 1250 -75 917 144 
Q 584 363 401 755 
Q 219 1147 219 1656 
Q 219 2153 384 2558 
Q 550 2963 881 3178 
Q 1213 3394 1622 3394 
Q 1922 3394 2156 3267 
Q 2391 3141 2538 2938 
L 2538 4581 
L 3097 4581 
L 3097 0 
L 2575 0 
z
M 797 1656 
Q 797 1019 1065 703 
Q 1334 388 1700 388 
Q 2069 388 2326 689 
Q 2584 991 2584 1609 
Q 2584 2291 2321 2609 
Q 2059 2928 1675 2928 
Q 1300 2928 1048 2622 
Q 797 2316 797 1656 
z
" transform="scale(0.015625)"/>
      </defs>
      <use xlink:href="#ArialMT-52"/>
      <use xlink:href="#ArialMT-6f" transform="translate(72.216797 0)"/>
      <use xlink:href="#ArialMT-75" transform="translate(127.832031 0)"/>
      <use xlink:href="#ArialMT-6e" transform="translate(183.447266 0)"/>
      <use xlink:href="#ArialMT-64" transform="translate(239.0625 0)"/>
     </g>
    </g>
   </g>
   <g id="matplotlib.axis_2">
    <g id="ytick_1">
     <g id="line2d_14">
      <path d="M 48.715 374.22 
L 539.8675 374.22 
" clip-path="url(#p3ecd7f53a0)" style="fill: none; stroke: #cccccc; stroke-opacity: 0.3; stroke-width: 1.5; stroke-linecap: round"/>
     </g>
     <g id="text_15">
      <!-- 0.0 -->
      <g style="fill: #262626" transform="translate(22.315 377.798906) scale(0.1 -0.1)">
       <defs>
        <path id="ArialMT-2e" d="M 581 0 
L 581 641 
L 1222 641 
L 1222 0 
L 581 0 
z
" transform="scale(0.015625)"/>
       </defs>
       <use xlink:href="#ArialMT-30"/>
       <use xlink:href="#ArialMT-2e" transform="translate(55.615234 0)"/>
       <use xlink:href="#ArialMT-30" transform="translate(83.398438 0)"/>
      </g>
     </g>
    </g>
    <g id="ytick_2">
     <g id="line2d_15">
      <path d="M 48.715 312.87525 
L 539.8675 312.87525 
" clip-path="url(#p3ecd7f53a0)" style="fill: none; stroke: #cccccc; stroke-opacity: 0.3; stroke-width: 1.5; stroke-linecap: round"/>
     </g>
     <g id="text_16">
      <!-- 0.2 -->
      <g style="fill: #262626" transform="translate(22.315 316.454156) scale(0.1 -0.1)">
       <use xlink:href="#ArialMT-30"/>
       <use xlink:href="#ArialMT-2e" transform="translate(55.615234 0)"/>
       <use xlink:href="#ArialMT-32" transform="translate(83.398438 0)"/>
      </g>
     </g>
    </g>
    <g id="ytick_3">
     <g id="line2d_16">
      <path d="M 48.715 251.5305 
L 539.8675 251.5305 
" clip-path="url(#p3ecd7f53a0)" style="fill: none; stroke: #cccccc; stroke-opacity: 0.3; stroke-width: 1.5; stroke-linecap: round"/>
     </g>
     <g id="text_17">
      <!-- 0.4 -->
      <g style="fill: #262626" transform="translate(22.315 255.109406) scale(0.1 -0.1)">
       <use xlink:href="#ArialMT-30"/>
       <use xlink:href="#ArialMT-2e" transform="translate(55.615234 0)"/>
       <use xlink:href="#ArialMT-34" transform="translate(83.398438 0)"/>
      </g>
     </g>
    </g>
    <g id="ytick_4">
     <g id="line2d_17">
      <path d="M 48.715 190.18575 
L 539.8675 190.18575 
" clip-path="url(#p3ecd7f53a0)" style="fill: none; stroke: #cccccc; stroke-opacity: 0.3; stroke-width: 1.5; stroke-linecap: round"/>
     </g>
     <g id="text_18">
      <!-- 0.6 -->
      <g style="fill: #262626" transform="translate(22.315 193.764656) scale(0.1 -0.1)">
       <use xlink:href="#ArialMT-30"/>
       <use xlink:href="#ArialMT-2e" transform="translate(55.615234 0)"/>
       <use xlink:href="#ArialMT-36" transform="translate(83.398438 0)"/>
      </g>
     </g>
    </g>
    <g id="ytick_5">
     <g id="line2d_18">
      <path d="M 48.715 128.841 
L 539.8675 128.841 
" clip-path="url(#p3ecd7f53a0)" style="fill: none; stroke: #cccccc; stroke-opacity: 0.3; stroke-width: 1.5; stroke-linecap: round"/>
     </g>
     <g id="text_19">
      <!-- 0.8 -->
      <g style="fill: #262626" transform="translate(22.315 132.419906) scale(0.1 -0.1)">
       <use xlink:href="#ArialMT-30"/>
       <use xlink:href="#ArialMT-2e" transform="translate(55.615234 0)"/>
       <use xlink:href="#ArialMT-38" transform="translate(83.398438 0)"/>
      </g>
     </g>
    </g>
    <g id="ytick_6">
     <g id="line2d_19">
      <path d="M 48.715 67.49625 
L 539.8675 67.49625 
" clip-path="url(#p3ecd7f53a0)" style="fill: none; stroke: #cccccc; stroke-opacity: 0.3; stroke-width: 1.5; stroke-linecap: round"/>
     </g>
     <g id="text_20">
      <!-- 1.0 -->
      <g style="fill: #262626" transform="translate(22.315 71.075156) scale(0.1 -0.1)">
       <use xlink:href="#ArialMT-31"/>
       <use xlink:href="#ArialMT-2e" transform="translate(55.615234 0)"/>
       <use xlink:href="#ArialMT-30" transform="translate(83.398438 0)"/>
      </g>
     </g>
    </g>
    <g id="text_21">
     <!-- Test Accuracy -->
     <g style="fill: #262626" transform="translate(15.789375 257.86875) rotate(-90) scale(0.12 -0.12)">
      <defs>
       <path id="ArialMT-54" d="M 1659 0 
L 1659 4041 
L 150 4041 
L 150 4581 
L 3781 4581 
L 3781 4041 
L 2266 4041 
L 2266 0 
L 1659 0 
z
" transform="scale(0.015625)"/>
       <path id="ArialMT-65" d="M 2694 1069 
L 3275 997 
Q 3138 488 2766 206 
Q 2394 -75 1816 -75 
Q 1088 -75 661 373 
Q 234 822 234 1631 
Q 234 2469 665 2931 
Q 1097 3394 1784 3394 
Q 2450 3394 2872 2941 
Q 3294 2488 3294 1666 
Q 3294 1616 3291 1516 
L 816 1516 
Q 847 969 1125 678 
Q 1403 388 1819 388 
Q 2128 388 2347 550 
Q 2566 713 2694 1069 
z
M 847 1978 
L 2700 1978 
Q 2663 2397 2488 2606 
Q 2219 2931 1791 2931 
Q 1403 2931 1139 2672 
Q 875 2413 847 1978 
z
" transform="scale(0.015625)"/>
       <path id="ArialMT-73" d="M 197 991 
L 753 1078 
Q 800 744 1014 566 
Q 1228 388 1613 388 
Q 2000 388 2187 545 
Q 2375 703 2375 916 
Q 2375 1106 2209 1216 
Q 2094 1291 1634 1406 
Q 1016 1563 777 1677 
Q 538 1791 414 1992 
Q 291 2194 291 2438 
Q 291 2659 392 2848 
Q 494 3038 669 3163 
Q 800 3259 1026 3326 
Q 1253 3394 1513 3394 
Q 1903 3394 2198 3281 
Q 2494 3169 2634 2976 
Q 2775 2784 2828 2463 
L 2278 2388 
Q 2241 2644 2061 2787 
Q 1881 2931 1553 2931 
Q 1166 2931 1000 2803 
Q 834 2675 834 2503 
Q 834 2394 903 2306 
Q 972 2216 1119 2156 
Q 1203 2125 1616 2013 
Q 2213 1853 2448 1751 
Q 2684 1650 2818 1456 
Q 2953 1263 2953 975 
Q 2953 694 2789 445 
Q 2625 197 2315 61 
Q 2006 -75 1616 -75 
Q 969 -75 630 194 
Q 291 463 197 991 
z
" transform="scale(0.015625)"/>
       <path id="ArialMT-74" d="M 1650 503 
L 1731 6 
Q 1494 -44 1306 -44 
Q 1000 -44 831 53 
Q 663 150 594 308 
Q 525 466 525 972 
L 525 2881 
L 113 2881 
L 113 3319 
L 525 3319 
L 525 4141 
L 1084 4478 
L 1084 3319 
L 1650 3319 
L 1650 2881 
L 1084 2881 
L 1084 941 
Q 1084 700 1114 631 
Q 1144 563 1211 522 
Q 1278 481 1403 481 
Q 1497 481 1650 503 
z
" transform="scale(0.015625)"/>
       <path id="ArialMT-20" transform="scale(0.015625)"/>
       <path id="ArialMT-41" d="M -9 0 
L 1750 4581 
L 2403 4581 
L 4278 0 
L 3588 0 
L 3053 1388 
L 1138 1388 
L 634 0 
L -9 0 
z
M 1313 1881 
L 2866 1881 
L 2388 3150 
Q 2169 3728 2063 4100 
Q 1975 3659 1816 3225 
L 1313 1881 
z
" transform="scale(0.015625)"/>
       <path id="ArialMT-63" d="M 2588 1216 
L 3141 1144 
Q 3050 572 2676 248 
Q 2303 -75 1759 -75 
Q 1078 -75 664 370 
Q 250 816 250 1647 
Q 250 2184 428 2587 
Q 606 2991 970 3192 
Q 1334 3394 1763 3394 
Q 2303 3394 2647 3120 
Q 2991 2847 3088 2344 
L 2541 2259 
Q 2463 2594 2264 2762 
Q 2066 2931 1784 2931 
Q 1359 2931 1093 2626 
Q 828 2322 828 1663 
Q 828 994 1084 691 
Q 1341 388 1753 388 
Q 2084 388 2306 591 
Q 2528 794 2588 1216 
z
" transform="scale(0.015625)"/>
       <path id="ArialMT-72" d="M 416 0 
L 416 3319 
L 922 3319 
L 922 2816 
Q 1116 3169 1280 3281 
Q 1444 3394 1641 3394 
Q 1925 3394 2219 3213 
L 2025 2691 
Q 1819 2813 1613 2813 
Q 1428 2813 1281 2702 
Q 1134 2591 1072 2394 
Q 978 2094 978 1738 
L 978 0 
L 416 0 
z
" transform="scale(0.015625)"/>
       <path id="ArialMT-61" d="M 2588 409 
Q 2275 144 1986 34 
Q 1697 -75 1366 -75 
Q 819 -75 525 192 
Q 231 459 231 875 
Q 231 1119 342 1320 
Q 453 1522 633 1644 
Q 813 1766 1038 1828 
Q 1203 1872 1538 1913 
Q 2219 1994 2541 2106 
Q 2544 2222 2544 2253 
Q 2544 2597 2384 2738 
Q 2169 2928 1744 2928 
Q 1347 2928 1158 2789 
Q 969 2650 878 2297 
L 328 2372 
Q 403 2725 575 2942 
Q 747 3159 1072 3276 
Q 1397 3394 1825 3394 
Q 2250 3394 2515 3294 
Q 2781 3194 2906 3042 
Q 3031 2891 3081 2659 
Q 3109 2516 3109 2141 
L 3109 1391 
Q 3109 606 3145 398 
Q 3181 191 3288 0 
L 2700 0 
Q 2613 175 2588 409 
z
M 2541 1666 
Q 2234 1541 1622 1453 
Q 1275 1403 1131 1340 
Q 988 1278 909 1158 
Q 831 1038 831 891 
Q 831 666 1001 516 
Q 1172 366 1500 366 
Q 1825 366 2078 508 
Q 2331 650 2450 897 
Q 2541 1088 2541 1459 
L 2541 1666 
z
" transform="scale(0.015625)"/>
       <path id="ArialMT-79" d="M 397 -1278 
L 334 -750 
Q 519 -800 656 -800 
Q 844 -800 956 -737 
Q 1069 -675 1141 -563 
Q 1194 -478 1313 -144 
Q 1328 -97 1363 -6 
L 103 3319 
L 709 3319 
L 1400 1397 
Q 1534 1031 1641 628 
Q 1738 1016 1872 1384 
L 2581 3319 
L 3144 3319 
L 1881 -56 
Q 1678 -603 1566 -809 
Q 1416 -1088 1222 -1217 
Q 1028 -1347 759 -1347 
Q 597 -1347 397 -1278 
z
" transform="scale(0.015625)"/>
      </defs>
      <use xlink:href="#ArialMT-54"/>
      <use xlink:href="#ArialMT-65" transform="translate(49.958984 0)"/>
      <use xlink:href="#ArialMT-73" transform="translate(105.574219 0)"/>
      <use xlink:href="#ArialMT-74" transform="translate(155.574219 0)"/>
      <use xlink:href="#ArialMT-20" transform="translate(183.357422 0)"/>
      <use xlink:href="#ArialMT-41" transform="translate(205.640625 0)"/>
      <use xlink:href="#ArialMT-63" transform="translate(272.339844 0)"/>
      <use xlink:href="#ArialMT-63" transform="translate(322.339844 0)"/>
      <use xlink:href="#ArialMT-75" transform="translate(372.339844 0)"/>
      <use xlink:href="#ArialMT-72" transform="translate(427.955078 0)"/>
      <use xlink:href="#ArialMT-61" transform="translate(461.255859 0)"/>
      <use xlink:href="#ArialMT-63" transform="translate(516.871094 0)"/>
      <use xlink:href="#ArialMT-79" transform="translate(566.871094 0)"/>
     </g>
    </g>
   </g>
   <g id="line2d_20">
    <path d="M 48.715 299.84924 
L 53.676136 319.606153 
L 58.637273 320.722212 
L 63.598409 323.665155 
L 68.559545 348.24504 
L 73.520682 321.851558 
L 78.481818 327.059837 
L 83.442955 324.834361 
L 88.404091 344.484982 
L 93.365227 321.313458 
L 98.326364 306.452592 
L 103.2875 332.786286 
L 108.248636 325.133305 
L 113.209773 320.595991 
L 118.170909 328.14268 
L 123.132045 303.981318 
L 128.093182 296.813292 
L 133.054318 275.435435 
L 138.015455 320.483057 
L 142.976591 337.536182 
L 147.937727 325.425606 
L 152.898864 325.810913 
L 157.86 299.736305 
L 162.821136 333.304456 
L 167.782273 325.372461 
L 172.743409 329.956277 
L 177.704545 307.548722 
L 182.665682 305.941065 
L 187.626818 329.79684 
L 192.587955 290.190009 
L 197.549091 312.969584 
L 202.510227 334.486948 
L 207.471364 295.44479 
L 212.4325 315.699944 
L 217.393636 361.81048 
L 222.354773 320.263831 
L 227.315909 306.213437 
L 232.277045 323.519005 
L 237.238182 319.287278 
L 242.199318 282.769541 
L 247.160455 286.609318 
L 252.121591 319.293922 
L 257.082727 336.287258 
L 262.043864 323.027407 
L 267.005 325.611616 
L 271.966136 353.087942 
L 276.927273 318.662816 
L 281.888409 329.743694 
L 286.849545 302.367017 
L 291.810682 285.825419 
L 296.771818 338.645599 
L 301.732955 321.273599 
L 306.694091 309.32246 
L 311.655227 302.91176 
L 316.616364 325.538541 
L 321.5775 304.844935 
L 326.538636 319.792163 
L 331.499773 300.188043 
L 336.460909 307.037195 
L 341.422045 328.707353 
L 346.383182 330.547523 
L 351.344318 327.843736 
L 356.305455 317.653048 
L 361.266591 331.338065 
L 366.227727 324.555346 
L 371.188864 317.467038 
L 376.15 320.011389 
L 381.111136 320.542846 
L 386.072273 331.530718 
L 391.033409 291.027054 
L 395.994545 316.244687 
L 400.955682 320.024675 
L 405.916818 337.63583 
L 410.877955 304.247046 
L 415.839091 294.288871 
L 420.800227 326.050068 
L 425.761364 280.092326 
L 430.7225 295.943031 
L 435.683636 315.75309 
L 440.644773 308.252903 
L 445.605909 315.367783 
L 450.567045 330.87304 
L 455.528182 327.936741 
L 460.489318 303.13763 
L 465.450455 331.072337 
L 470.411591 324.615135 
L 475.372727 323.771447 
L 480.333864 288.961015 
L 485.295 332.646778 
L 490.256136 323.293135 
L 495.217273 313.906277 
L 500.178409 317.998495 
L 505.139545 311.714017 
L 510.100682 311.149343 
L 515.061818 291.545224 
L 520.022955 336.978152 
L 524.984091 293.524902 
L 529.945227 256.216622 
L 534.906364 336.719067 
L 539.8675 334.3873 
" clip-path="url(#p3ecd7f53a0)" style="fill: none; stroke: #ff0000; stroke-width: 2; stroke-linecap: round"/>
   </g>
   <g id="line2d_21">
    <path d="M 48.715 291.419003 
L 53.676136 306.22008 
L 58.637273 327.099696 
L 63.598409 324.814431 
L 68.559545 338.021137 
L 73.520682 320.243901 
L 78.481818 327.830449 
L 83.442955 307.143487 
L 88.404091 348.132106 
L 93.365227 315.507291 
L 98.326364 315.985602 
L 103.2875 332.394336 
L 108.248636 320.815217 
L 113.209773 315.234919 
L 118.170909 324.648351 
L 123.132045 319.732374 
L 128.093182 301.921922 
L 133.054318 273.588622 
L 138.015455 319.180987 
L 142.976591 334.480305 
L 147.937727 324.70814 
L 152.898864 326.940259 
L 157.86 310.405304 
L 162.821136 339.382995 
L 167.782273 332.533844 
L 172.743409 332.307974 
L 177.704545 317.626475 
L 182.665682 304.359981 
L 187.626818 330.819895 
L 192.587955 279.467865 
L 197.549091 309.089948 
L 202.510227 322.462734 
L 207.471364 330.534237 
L 212.4325 320.018032 
L 217.393636 333.64326 
L 222.354773 300.088395 
L 227.315909 311.122771 
L 232.277045 326.495164 
L 237.238182 327.292349 
L 242.199318 325.345888 
L 247.160455 312.112609 
L 252.121591 321.054373 
L 257.082727 325.751124 
L 262.043864 315.646798 
L 267.005 321.446322 
L 271.966136 310.677675 
L 276.927273 329.012941 
L 281.888409 329.657333 
L 286.849545 315.620225 
L 291.810682 329.557684 
L 296.771818 338.120785 
L 301.732955 319.659298 
L 306.694091 322.735106 
L 311.655227 334.73939 
L 316.616364 307.841024 
L 321.5775 329.139162 
L 326.538636 294.275585 
L 331.499773 310.43852 
L 336.460909 298.19508 
L 341.422045 330.54088 
L 346.383182 337.323599 
L 351.344318 328.833574 
L 356.305455 313.142307 
L 361.266591 330.72689 
L 366.227727 328.554559 
L 371.188864 318.310726 
L 376.15 321.579187 
L 381.111136 324.382622 
L 386.072273 329.012941 
L 391.033409 323.771447 
L 395.994545 324.010602 
L 400.955682 311.494791 
L 405.916818 321.964493 
L 410.877955 309.647978 
L 415.839091 303.449861 
L 420.800227 330.434588 
L 425.761364 281.520617 
L 430.7225 278.013001 
L 435.683636 326.069998 
L 440.644773 319.134485 
L 445.605909 317.20131 
L 450.567045 335.802304 
L 455.528182 333.470536 
L 460.489318 326.169646 
L 465.450455 317.845701 
L 470.411591 324.349406 
L 475.372727 327.292349 
L 480.333864 301.529972 
L 485.295 331.178628 
L 490.256136 322.582312 
L 495.217273 316.311119 
L 500.178409 320.370122 
L 505.139545 316.762858 
L 510.100682 319.572937 
L 515.061818 289.226743 
L 520.022955 340.399407 
L 524.984091 289.638622 
L 529.945227 277.441685 
L 534.906364 330.713603 
L 539.8675 335.609651 
" clip-path="url(#p3ecd7f53a0)" style="fill: none; stroke-dasharray: 7.4,3.2; stroke-dashoffset: 0; stroke: #0000ff; stroke-width: 2"/>
   </g>
   <g id="line2d_22">
    <path d="M 48.715 320.476413 
L 53.676136 313.501041 
L 58.637273 291.325998 
L 63.598409 338.127428 
L 68.559545 311.621012 
L 73.520682 325.737837 
L 78.481818 289.319748 
L 83.442955 293.451826 
L 88.404091 337.476393 
L 93.365227 313.175523 
L 98.326364 281.846135 
L 103.2875 339.934382 
L 108.248636 305.283387 
L 113.209773 302.081359 
L 118.170909 321.878131 
L 123.132045 322.967618 
L 128.093182 281.394396 
L 133.054318 341.389245 
L 138.015455 338.672172 
L 142.976591 321.293528 
L 147.937727 310.969977 
L 152.898864 326.329083 
L 157.86 322.622171 
L 162.821136 314.138789 
L 167.782273 316.862506 
L 172.743409 283.626515 
L 177.704545 314.557311 
L 182.665682 319.433429 
L 187.626818 347.946096 
L 192.587955 297.311532 
L 197.549091 316.796074 
L 202.510227 355.798373 
L 207.471364 304.884794 
L 212.4325 331.125483 
L 217.393636 329.557684 
L 222.354773 321.678835 
L 227.315909 333.709692 
L 232.277045 313.069232 
L 237.238182 325.697978 
L 242.199318 304.41977 
L 247.160455 308.179828 
L 252.121591 316.490486 
L 257.082727 329.889845 
L 262.043864 293.504972 
L 267.005 311.102841 
L 271.966136 323.426 
L 276.927273 330.534237 
L 281.888409 313.786699 
L 286.849545 307.362713 
L 291.810682 323.479145 
L 296.771818 321.446322 
L 301.732955 323.804663 
L 306.694091 290.595245 
L 311.655227 291.013767 
L 316.616364 330.142287 
L 321.5775 298.680034 
L 326.538636 283.035269 
L 331.499773 322.150503 
L 336.460909 315.301351 
L 341.422045 328.933223 
L 346.383182 330.580739 
L 351.344318 318.058284 
L 356.305455 314.138789 
L 361.266591 324.747999 
L 366.227727 291.771094 
L 371.188864 323.286492 
L 376.15 331.849593 
L 381.111136 300.486988 
L 386.072273 321.37989 
L 391.033409 310.206007 
L 395.994545 345.999635 
L 400.955682 340.332975 
L 405.916818 319.433429 
L 410.877955 267.822314 
L 415.839091 316.397481 
L 420.800227 314.158719 
L 425.761364 307.322853 
L 430.7225 327.518218 
L 435.683636 293.983283 
L 440.644773 350.869109 
L 445.605909 328.561203 
L 450.567045 328.800358 
L 455.528182 329.152449 
L 460.489318 282.709752 
L 465.450455 323.492432 
L 470.411591 303.051268 
L 475.372727 335.177842 
L 480.333864 327.717515 
L 485.295 348.384548 
L 490.256136 340.445909 
L 495.217273 318.264224 
L 500.178409 317.73941 
L 505.139545 329.172378 
L 510.100682 301.204455 
L 515.061818 344.272399 
L 520.022955 320.702283 
L 524.984091 326.721033 
L 529.945227 292.634711 
L 534.906364 316.716355 
L 539.8675 289.153668 
" clip-path="url(#p3ecd7f53a0)" style="fill: none; stroke-dasharray: 7.4,3.2; stroke-dashoffset: 0; stroke: #008000; stroke-width: 2"/>
   </g>
   <g id="line2d_23">
    <path d="M 48.715 314.670246 
L 53.676136 323.631939 
L 58.637273 321.001227 
L 63.598409 319.519791 
L 68.559545 335.476787 
L 73.520682 320.416624 
L 78.481818 310.006711 
L 83.442955 323.153628 
L 88.404091 316.304476 
L 93.365227 324.196612 
L 98.326364 327.06648 
L 103.2875 320.556132 
L 108.248636 317.599903 
L 113.209773 310.093073 
L 118.170909 324.077034 
L 123.132045 319.406856 
L 128.093182 296.906297 
L 133.054318 314.896115 
L 138.015455 324.867577 
L 142.976591 333.018798 
L 147.937727 324.143467 
L 152.898864 325.658119 
L 157.86 326.747606 
L 162.821136 323.027407 
L 167.782273 322.781608 
L 172.743409 289.997356 
L 177.704545 321.359961 
L 182.665682 338.260292 
L 187.626818 322.602241 
L 192.587955 310.637816 
L 197.549091 342.179788 
L 202.510227 308.525275 
L 207.471364 317.480325 
L 212.4325 324.555346 
L 217.393636 322.402945 
L 222.354773 317.221239 
L 227.315909 316.304476 
L 232.277045 333.649903 
L 237.238182 319.453359 
L 242.199318 341.535396 
L 247.160455 322.183719 
L 252.121591 325.731194 
L 257.082727 324.468984 
L 262.043864 301.822274 
L 267.005 331.9891 
L 271.966136 329.531112 
L 276.927273 293.903565 
L 281.888409 314.45102 
L 286.849545 313.91292 
L 291.810682 328.381836 
L 296.771818 343.023476 
L 301.732955 325.472109 
L 306.694091 276.916871 
L 311.655227 288.741789 
L 316.616364 306.246653 
L 321.5775 342.080139 
L 326.538636 330.919543 
L 331.499773 318.423661 
L 336.460909 328.614348 
L 341.422045 302.147791 
L 346.383182 346.803463 
L 351.344318 323.073909 
L 356.305455 307.189989 
L 361.266591 305.10402 
L 366.227727 344.777284 
L 371.188864 319.739017 
L 376.15 321.173951 
L 381.111136 317.221239 
L 386.072273 338.21379 
L 391.033409 326.926972 
L 395.994545 298.686677 
L 400.955682 312.139182 
L 405.916818 301.27753 
L 410.877955 325.963707 
L 415.839091 328.660851 
L 420.800227 320.370122 
L 425.761364 316.722999 
L 430.7225 329.491252 
L 435.683636 307.807808 
L 440.644773 308.830862 
L 445.605909 340.127035 
L 450.567045 325.286099 
L 455.528182 328.547916 
L 460.489318 285.57962 
L 465.450455 312.743714 
L 470.411591 315.792949 
L 475.372727 320.595991 
L 480.333864 324.741356 
L 485.295 334.94533 
L 490.256136 270.207227 
L 495.217273 296.301764 
L 500.178409 313.673764 
L 505.139545 314.384588 
L 510.100682 356.097317 
L 515.061818 341.721406 
L 520.022955 326.435375 
L 524.984091 317.041873 
L 529.945227 310.053213 
L 534.906364 335.177842 
L 539.8675 319.818735 
" clip-path="url(#p3ecd7f53a0)" style="fill: none; stroke-dasharray: 7.4,3.2; stroke-dashoffset: 0; stroke: #ffa500; stroke-width: 2"/>
   </g>
   <g id="patch_3">
    <path d="M 48.715 374.22 
L 48.715 67.49625 
" style="fill: none; stroke: #262626; stroke-width: 1.875; stroke-linejoin: miter; stroke-linecap: square"/>
   </g>
   <g id="patch_4">
    <path d="M 539.8675 374.22 
L 539.8675 67.49625 
" style="fill: none; stroke: #262626; stroke-width: 1.875; stroke-linejoin: miter; stroke-linecap: square"/>
   </g>
   <g id="patch_5">
    <path d="M 48.715 374.22 
L 539.8675 374.22 
" style="fill: none; stroke: #262626; stroke-width: 1.875; stroke-linejoin: miter; stroke-linecap: square"/>
   </g>
   <g id="patch_6">
    <path d="M 48.715 67.49625 
L 539.8675 67.49625 
" style="fill: none; stroke: #262626; stroke-width: 1.875; stroke-linejoin: miter; stroke-linecap: square"/>
   </g>
   <g id="text_22">
    <!-- Hierarchical Test Accuracy -->
    <g style="fill: #262626" transform="translate(212.336563 61.49625) scale(0.14 -0.14)">
     <defs>
      <path id="ArialMT-48" d="M 513 0 
L 513 4581 
L 1119 4581 
L 1119 2700 
L 3500 2700 
L 3500 4581 
L 4106 4581 
L 4106 0 
L 3500 0 
L 3500 2159 
L 1119 2159 
L 1119 0 
L 513 0 
z
" transform="scale(0.015625)"/>
      <path id="ArialMT-69" d="M 425 3934 
L 425 4581 
L 988 4581 
L 988 3934 
L 425 3934 
z
M 425 0 
L 425 3319 
L 988 3319 
L 988 0 
L 425 0 
z
" transform="scale(0.015625)"/>
      <path id="ArialMT-68" d="M 422 0 
L 422 4581 
L 984 4581 
L 984 2938 
Q 1378 3394 1978 3394 
Q 2347 3394 2619 3248 
Q 2891 3103 3008 2847 
Q 3125 2591 3125 2103 
L 3125 0 
L 2563 0 
L 2563 2103 
Q 2563 2525 2380 2717 
Q 2197 2909 1863 2909 
Q 1613 2909 1392 2779 
Q 1172 2650 1078 2428 
Q 984 2206 984 1816 
L 984 0 
L 422 0 
z
" transform="scale(0.015625)"/>
      <path id="ArialMT-6c" d="M 409 0 
L 409 4581 
L 972 4581 
L 972 0 
L 409 0 
z
" transform="scale(0.015625)"/>
     </defs>
     <use xlink:href="#ArialMT-48"/>
     <use xlink:href="#ArialMT-69" transform="translate(72.216797 0)"/>
     <use xlink:href="#ArialMT-65" transform="translate(94.433594 0)"/>
     <use xlink:href="#ArialMT-72" transform="translate(150.048828 0)"/>
     <use xlink:href="#ArialMT-61" transform="translate(183.349609 0)"/>
     <use xlink:href="#ArialMT-72" transform="translate(238.964844 0)"/>
     <use xlink:href="#ArialMT-63" transform="translate(272.265625 0)"/>
     <use xlink:href="#ArialMT-68" transform="translate(322.265625 0)"/>
     <use xlink:href="#ArialMT-69" transform="translate(377.880859 0)"/>
     <use xlink:href="#ArialMT-63" transform="translate(400.097656 0)"/>
     <use xlink:href="#ArialMT-61" transform="translate(450.097656 0)"/>
     <use xlink:href="#ArialMT-6c" transform="translate(505.712891 0)"/>
     <use xlink:href="#ArialMT-20" transform="translate(527.929688 0)"/>
     <use xlink:href="#ArialMT-54" transform="translate(553.962891 0)"/>
     <use xlink:href="#ArialMT-65" transform="translate(603.921875 0)"/>
     <use xlink:href="#ArialMT-73" transform="translate(659.537109 0)"/>
     <use xlink:href="#ArialMT-74" transform="translate(709.537109 0)"/>
     <use xlink:href="#ArialMT-20" transform="translate(737.320312 0)"/>
     <use xlink:href="#ArialMT-41" transform="translate(759.603516 0)"/>
     <use xlink:href="#ArialMT-63" transform="translate(826.302734 0)"/>
     <use xlink:href="#ArialMT-63" transform="translate(876.302734 0)"/>
     <use xlink:href="#ArialMT-75" transform="translate(926.302734 0)"/>
     <use xlink:href="#ArialMT-72" transform="translate(981.917969 0)"/>
     <use xlink:href="#ArialMT-61" transform="translate(1015.21875 0)"/>
     <use xlink:href="#ArialMT-63" transform="translate(1070.833984 0)"/>
     <use xlink:href="#ArialMT-79" transform="translate(1120.833984 0)"/>
    </g>
   </g>
   <g id="legend_1">
    <g id="patch_7">
     <path d="M 414.725313 132.316562 
L 532.8675 132.316562 
Q 534.8675 132.316562 534.8675 130.316562 
L 534.8675 74.49625 
Q 534.8675 72.49625 532.8675 72.49625 
L 414.725313 72.49625 
Q 412.725313 72.49625 412.725313 74.49625 
L 412.725313 130.316562 
Q 412.725313 132.316562 414.725313 132.316562 
z
" style="fill: #ffffff; opacity: 0.8; stroke: #cccccc; stroke-width: 1.5; stroke-linejoin: miter"/>
    </g>
    <g id="line2d_24">
     <path d="M 416.725313 80.275937 
L 426.725313 80.275937 
L 436.725313 80.275937 
" style="fill: none; stroke: #ff0000; stroke-width: 2; stroke-linecap: round"/>
    </g>
    <g id="text_23">
     <!-- Cloud (Centralized) -->
     <g style="fill: #262626" transform="translate(444.725313 83.775937) scale(0.1 -0.1)">
      <defs>
       <path id="ArialMT-43" d="M 3763 1606 
L 4369 1453 
Q 4178 706 3683 314 
Q 3188 -78 2472 -78 
Q 1731 -78 1267 223 
Q 803 525 561 1097 
Q 319 1669 319 2325 
Q 319 3041 592 3573 
Q 866 4106 1370 4382 
Q 1875 4659 2481 4659 
Q 3169 4659 3637 4309 
Q 4106 3959 4291 3325 
L 3694 3184 
Q 3534 3684 3231 3912 
Q 2928 4141 2469 4141 
Q 1941 4141 1586 3887 
Q 1231 3634 1087 3207 
Q 944 2781 944 2328 
Q 944 1744 1114 1308 
Q 1284 872 1643 656 
Q 2003 441 2422 441 
Q 2931 441 3284 734 
Q 3638 1028 3763 1606 
z
" transform="scale(0.015625)"/>
       <path id="ArialMT-28" d="M 1497 -1347 
Q 1031 -759 709 28 
Q 388 816 388 1659 
Q 388 2403 628 3084 
Q 909 3875 1497 4659 
L 1900 4659 
Q 1522 4009 1400 3731 
Q 1209 3300 1100 2831 
Q 966 2247 966 1656 
Q 966 153 1900 -1347 
L 1497 -1347 
z
" transform="scale(0.015625)"/>
       <path id="ArialMT-7a" d="M 125 0 
L 125 456 
L 2238 2881 
Q 1878 2863 1603 2863 
L 250 2863 
L 250 3319 
L 2963 3319 
L 2963 2947 
L 1166 841 
L 819 456 
Q 1197 484 1528 484 
L 3063 484 
L 3063 0 
L 125 0 
z
" transform="scale(0.015625)"/>
       <path id="ArialMT-29" d="M 791 -1347 
L 388 -1347 
Q 1322 153 1322 1656 
Q 1322 2244 1188 2822 
Q 1081 3291 891 3722 
Q 769 4003 388 4659 
L 791 4659 
Q 1378 3875 1659 3084 
Q 1900 2403 1900 1659 
Q 1900 816 1576 28 
Q 1253 -759 791 -1347 
z
" transform="scale(0.015625)"/>
      </defs>
      <use xlink:href="#ArialMT-43"/>
      <use xlink:href="#ArialMT-6c" transform="translate(72.216797 0)"/>
      <use xlink:href="#ArialMT-6f" transform="translate(94.433594 0)"/>
      <use xlink:href="#ArialMT-75" transform="translate(150.048828 0)"/>
      <use xlink:href="#ArialMT-64" transform="translate(205.664062 0)"/>
      <use xlink:href="#ArialMT-20" transform="translate(261.279297 0)"/>
      <use xlink:href="#ArialMT-28" transform="translate(289.0625 0)"/>
      <use xlink:href="#ArialMT-43" transform="translate(322.363281 0)"/>
      <use xlink:href="#ArialMT-65" transform="translate(394.580078 0)"/>
      <use xlink:href="#ArialMT-6e" transform="translate(450.195312 0)"/>
      <use xlink:href="#ArialMT-74" transform="translate(505.810547 0)"/>
      <use xlink:href="#ArialMT-72" transform="translate(533.59375 0)"/>
      <use xlink:href="#ArialMT-61" transform="translate(566.894531 0)"/>
      <use xlink:href="#ArialMT-6c" transform="translate(622.509766 0)"/>
      <use xlink:href="#ArialMT-69" transform="translate(644.726562 0)"/>
      <use xlink:href="#ArialMT-7a" transform="translate(666.943359 0)"/>
      <use xlink:href="#ArialMT-65" transform="translate(716.943359 0)"/>
      <use xlink:href="#ArialMT-64" transform="translate(772.558594 0)"/>
      <use xlink:href="#ArialMT-29" transform="translate(828.173828 0)"/>
     </g>
    </g>
    <g id="line2d_25">
     <path d="M 416.725313 94.538437 
L 426.725313 94.538437 
L 436.725313 94.538437 
" style="fill: none; stroke-dasharray: 7.4,3.2; stroke-dashoffset: 0; stroke: #0000ff; stroke-width: 2"/>
    </g>
    <g id="text_24">
     <!-- Server 0 -->
     <g style="fill: #262626" transform="translate(444.725313 98.038437) scale(0.1 -0.1)">
      <defs>
       <path id="ArialMT-53" d="M 288 1472 
L 859 1522 
Q 900 1178 1048 958 
Q 1197 738 1509 602 
Q 1822 466 2213 466 
Q 2559 466 2825 569 
Q 3091 672 3220 851 
Q 3350 1031 3350 1244 
Q 3350 1459 3225 1620 
Q 3100 1781 2813 1891 
Q 2628 1963 1997 2114 
Q 1366 2266 1113 2400 
Q 784 2572 623 2826 
Q 463 3081 463 3397 
Q 463 3744 659 4045 
Q 856 4347 1234 4503 
Q 1613 4659 2075 4659 
Q 2584 4659 2973 4495 
Q 3363 4331 3572 4012 
Q 3781 3694 3797 3291 
L 3216 3247 
Q 3169 3681 2898 3903 
Q 2628 4125 2100 4125 
Q 1550 4125 1298 3923 
Q 1047 3722 1047 3438 
Q 1047 3191 1225 3031 
Q 1400 2872 2139 2705 
Q 2878 2538 3153 2413 
Q 3553 2228 3743 1945 
Q 3934 1663 3934 1294 
Q 3934 928 3725 604 
Q 3516 281 3123 101 
Q 2731 -78 2241 -78 
Q 1619 -78 1198 103 
Q 778 284 539 648 
Q 300 1013 288 1472 
z
" transform="scale(0.015625)"/>
       <path id="ArialMT-76" d="M 1344 0 
L 81 3319 
L 675 3319 
L 1388 1331 
Q 1503 1009 1600 663 
Q 1675 925 1809 1294 
L 2547 3319 
L 3125 3319 
L 1869 0 
L 1344 0 
z
" transform="scale(0.015625)"/>
      </defs>
      <use xlink:href="#ArialMT-53"/>
      <use xlink:href="#ArialMT-65" transform="translate(66.699219 0)"/>
      <use xlink:href="#ArialMT-72" transform="translate(122.314453 0)"/>
      <use xlink:href="#ArialMT-76" transform="translate(155.615234 0)"/>
      <use xlink:href="#ArialMT-65" transform="translate(205.615234 0)"/>
      <use xlink:href="#ArialMT-72" transform="translate(261.230469 0)"/>
      <use xlink:href="#ArialMT-20" transform="translate(294.53125 0)"/>
      <use xlink:href="#ArialMT-30" transform="translate(322.314453 0)"/>
     </g>
    </g>
    <g id="line2d_26">
     <path d="M 416.725313 108.68375 
L 426.725313 108.68375 
L 436.725313 108.68375 
" style="fill: none; stroke-dasharray: 7.4,3.2; stroke-dashoffset: 0; stroke: #008000; stroke-width: 2"/>
    </g>
    <g id="text_25">
     <!-- Server 1 -->
     <g style="fill: #262626" transform="translate(444.725313 112.18375) scale(0.1 -0.1)">
      <use xlink:href="#ArialMT-53"/>
      <use xlink:href="#ArialMT-65" transform="translate(66.699219 0)"/>
      <use xlink:href="#ArialMT-72" transform="translate(122.314453 0)"/>
      <use xlink:href="#ArialMT-76" transform="translate(155.615234 0)"/>
      <use xlink:href="#ArialMT-65" transform="translate(205.615234 0)"/>
      <use xlink:href="#ArialMT-72" transform="translate(261.230469 0)"/>
      <use xlink:href="#ArialMT-20" transform="translate(294.53125 0)"/>
      <use xlink:href="#ArialMT-31" transform="translate(322.314453 0)"/>
     </g>
    </g>
    <g id="line2d_27">
     <path d="M 416.725313 122.829063 
L 426.725313 122.829063 
L 436.725313 122.829063 
" style="fill: none; stroke-dasharray: 7.4,3.2; stroke-dashoffset: 0; stroke: #ffa500; stroke-width: 2"/>
    </g>
    <g id="text_26">
     <!-- Server 2 -->
     <g style="fill: #262626" transform="translate(444.725313 126.329063) scale(0.1 -0.1)">
      <use xlink:href="#ArialMT-53"/>
      <use xlink:href="#ArialMT-65" transform="translate(66.699219 0)"/>
      <use xlink:href="#ArialMT-72" transform="translate(122.314453 0)"/>
      <use xlink:href="#ArialMT-76" transform="translate(155.615234 0)"/>
      <use xlink:href="#ArialMT-65" transform="translate(205.615234 0)"/>
      <use xlink:href="#ArialMT-72" transform="translate(261.230469 0)"/>
      <use xlink:href="#ArialMT-20" transform="translate(294.53125 0)"/>
      <use xlink:href="#ArialMT-32" transform="translate(322.314453 0)"/>
     </g>
    </g>
   </g>
  </g>
  <g id="axes_2">
   <g id="patch_8">
    <path d="M 620.5825 374.22 
L 1111.735 374.22 
L 1111.735 67.49625 
L 620.5825 67.49625 
z
" style="fill: #ffffff"/>
   </g>
   <g id="matplotlib.axis_3">
    <g id="xtick_14">
     <g id="line2d_28">
      <path d="M 620.5825 374.22 
L 620.5825 67.49625 
" clip-path="url(#p8441808a8d)" style="fill: none; stroke: #cccccc; stroke-opacity: 0.3; stroke-width: 1.5; stroke-linecap: round"/>
     </g>
     <g id="text_27">
      <!-- 1 -->
      <g style="fill: #262626" transform="translate(617.802031 393.877812) scale(0.1 -0.1)">
       <use xlink:href="#ArialMT-31"/>
      </g>
     </g>
    </g>
    <g id="xtick_15">
     <g id="line2d_29">
      <path d="M 665.232727 374.22 
L 665.232727 67.49625 
" clip-path="url(#p8441808a8d)" style="fill: none; stroke: #cccccc; stroke-opacity: 0.3; stroke-width: 1.5; stroke-linecap: round"/>
     </g>
     <g id="text_28">
      <!-- 10 -->
      <g style="fill: #262626" transform="translate(659.67179 393.877812) scale(0.1 -0.1)">
       <use xlink:href="#ArialMT-31"/>
       <use xlink:href="#ArialMT-30" transform="translate(55.615234 0)"/>
      </g>
     </g>
    </g>
    <g id="xtick_16">
     <g id="line2d_30">
      <path d="M 709.882955 374.22 
L 709.882955 67.49625 
" clip-path="url(#p8441808a8d)" style="fill: none; stroke: #cccccc; stroke-opacity: 0.3; stroke-width: 1.5; stroke-linecap: round"/>
     </g>
     <g id="text_29">
      <!-- 19 -->
      <g style="fill: #262626" transform="translate(704.322017 393.877812) scale(0.1 -0.1)">
       <use xlink:href="#ArialMT-31"/>
       <use xlink:href="#ArialMT-39" transform="translate(55.615234 0)"/>
      </g>
     </g>
    </g>
    <g id="xtick_17">
     <g id="line2d_31">
      <path d="M 754.533182 374.22 
L 754.533182 67.49625 
" clip-path="url(#p8441808a8d)" style="fill: none; stroke: #cccccc; stroke-opacity: 0.3; stroke-width: 1.5; stroke-linecap: round"/>
     </g>
     <g id="text_30">
      <!-- 28 -->
      <g style="fill: #262626" transform="translate(748.972244 393.877812) scale(0.1 -0.1)">
       <use xlink:href="#ArialMT-32"/>
       <use xlink:href="#ArialMT-38" transform="translate(55.615234 0)"/>
      </g>
     </g>
    </g>
    <g id="xtick_18">
     <g id="line2d_32">
      <path d="M 799.183409 374.22 
L 799.183409 67.49625 
" clip-path="url(#p8441808a8d)" style="fill: none; stroke: #cccccc; stroke-opacity: 0.3; stroke-width: 1.5; stroke-linecap: round"/>
     </g>
     <g id="text_31">
      <!-- 37 -->
      <g style="fill: #262626" transform="translate(793.622472 393.877812) scale(0.1 -0.1)">
       <use xlink:href="#ArialMT-33"/>
       <use xlink:href="#ArialMT-37" transform="translate(55.615234 0)"/>
      </g>
     </g>
    </g>
    <g id="xtick_19">
     <g id="line2d_33">
      <path d="M 843.833636 374.22 
L 843.833636 67.49625 
" clip-path="url(#p8441808a8d)" style="fill: none; stroke: #cccccc; stroke-opacity: 0.3; stroke-width: 1.5; stroke-linecap: round"/>
     </g>
     <g id="text_32">
      <!-- 46 -->
      <g style="fill: #262626" transform="translate(838.272699 393.877812) scale(0.1 -0.1)">
       <use xlink:href="#ArialMT-34"/>
       <use xlink:href="#ArialMT-36" transform="translate(55.615234 0)"/>
      </g>
     </g>
    </g>
    <g id="xtick_20">
     <g id="line2d_34">
      <path d="M 888.483864 374.22 
L 888.483864 67.49625 
" clip-path="url(#p8441808a8d)" style="fill: none; stroke: #cccccc; stroke-opacity: 0.3; stroke-width: 1.5; stroke-linecap: round"/>
     </g>
     <g id="text_33">
      <!-- 55 -->
      <g style="fill: #262626" transform="translate(882.922926 393.877812) scale(0.1 -0.1)">
       <use xlink:href="#ArialMT-35"/>
       <use xlink:href="#ArialMT-35" transform="translate(55.615234 0)"/>
      </g>
     </g>
    </g>
    <g id="xtick_21">
     <g id="line2d_35">
      <path d="M 933.134091 374.22 
L 933.134091 67.49625 
" clip-path="url(#p8441808a8d)" style="fill: none; stroke: #cccccc; stroke-opacity: 0.3; stroke-width: 1.5; stroke-linecap: round"/>
     </g>
     <g id="text_34">
      <!-- 64 -->
      <g style="fill: #262626" transform="translate(927.573153 393.877812) scale(0.1 -0.1)">
       <use xlink:href="#ArialMT-36"/>
       <use xlink:href="#ArialMT-34" transform="translate(55.615234 0)"/>
      </g>
     </g>
    </g>
    <g id="xtick_22">
     <g id="line2d_36">
      <path d="M 977.784318 374.22 
L 977.784318 67.49625 
" clip-path="url(#p8441808a8d)" style="fill: none; stroke: #cccccc; stroke-opacity: 0.3; stroke-width: 1.5; stroke-linecap: round"/>
     </g>
     <g id="text_35">
      <!-- 73 -->
      <g style="fill: #262626" transform="translate(972.223381 393.877812) scale(0.1 -0.1)">
       <use xlink:href="#ArialMT-37"/>
       <use xlink:href="#ArialMT-33" transform="translate(55.615234 0)"/>
      </g>
     </g>
    </g>
    <g id="xtick_23">
     <g id="line2d_37">
      <path d="M 1022.434545 374.22 
L 1022.434545 67.49625 
" clip-path="url(#p8441808a8d)" style="fill: none; stroke: #cccccc; stroke-opacity: 0.3; stroke-width: 1.5; stroke-linecap: round"/>
     </g>
     <g id="text_36">
      <!-- 82 -->
      <g style="fill: #262626" transform="translate(1016.873608 393.877812) scale(0.1 -0.1)">
       <use xlink:href="#ArialMT-38"/>
       <use xlink:href="#ArialMT-32" transform="translate(55.615234 0)"/>
      </g>
     </g>
    </g>
    <g id="xtick_24">
     <g id="line2d_38">
      <path d="M 1067.084773 374.22 
L 1067.084773 67.49625 
" clip-path="url(#p8441808a8d)" style="fill: none; stroke: #cccccc; stroke-opacity: 0.3; stroke-width: 1.5; stroke-linecap: round"/>
     </g>
     <g id="text_37">
      <!-- 91 -->
      <g style="fill: #262626" transform="translate(1061.523835 393.877812) scale(0.1 -0.1)">
       <use xlink:href="#ArialMT-39"/>
       <use xlink:href="#ArialMT-31" transform="translate(55.615234 0)"/>
      </g>
     </g>
    </g>
    <g id="xtick_25">
     <g id="line2d_39">
      <path d="M 1111.735 374.22 
L 1111.735 67.49625 
" clip-path="url(#p8441808a8d)" style="fill: none; stroke: #cccccc; stroke-opacity: 0.3; stroke-width: 1.5; stroke-linecap: round"/>
     </g>
     <g id="text_38">
      <!-- 100 -->
      <g style="fill: #262626" transform="translate(1103.393594 393.877812) scale(0.1 -0.1)">
       <use xlink:href="#ArialMT-31"/>
       <use xlink:href="#ArialMT-30" transform="translate(55.615234 0)"/>
       <use xlink:href="#ArialMT-30" transform="translate(111.230469 0)"/>
      </g>
     </g>
    </g>
    <g id="xtick_26">
     <g id="line2d_40">
      <path d="M 1111.735 374.22 
L 1111.735 67.49625 
" clip-path="url(#p8441808a8d)" style="fill: none; stroke: #cccccc; stroke-opacity: 0.3; stroke-width: 1.5; stroke-linecap: round"/>
     </g>
     <g id="text_39">
      <!-- 100 -->
      <g style="fill: #262626" transform="translate(1103.393594 393.877812) scale(0.1 -0.1)">
       <use xlink:href="#ArialMT-31"/>
       <use xlink:href="#ArialMT-30" transform="translate(55.615234 0)"/>
       <use xlink:href="#ArialMT-30" transform="translate(111.230469 0)"/>
      </g>
     </g>
    </g>
    <g id="text_40">
     <!-- Round -->
     <g style="fill: #262626" transform="translate(848.479375 408.454687) scale(0.12 -0.12)">
      <use xlink:href="#ArialMT-52"/>
      <use xlink:href="#ArialMT-6f" transform="translate(72.216797 0)"/>
      <use xlink:href="#ArialMT-75" transform="translate(127.832031 0)"/>
      <use xlink:href="#ArialMT-6e" transform="translate(183.447266 0)"/>
      <use xlink:href="#ArialMT-64" transform="translate(239.0625 0)"/>
     </g>
    </g>
   </g>
   <g id="matplotlib.axis_4">
    <g id="ytick_7">
     <g id="line2d_41">
      <path d="M 620.5825 337.132057 
L 1111.735 337.132057 
" clip-path="url(#p8441808a8d)" style="fill: none; stroke: #cccccc; stroke-opacity: 0.3; stroke-width: 1.5; stroke-linecap: round"/>
     </g>
     <g id="text_41">
      <!-- 1.780 -->
      <g style="fill: #262626" transform="translate(583.060625 340.710963) scale(0.1 -0.1)">
       <use xlink:href="#ArialMT-31"/>
       <use xlink:href="#ArialMT-2e" transform="translate(55.615234 0)"/>
       <use xlink:href="#ArialMT-37" transform="translate(83.398438 0)"/>
       <use xlink:href="#ArialMT-38" transform="translate(139.013672 0)"/>
       <use xlink:href="#ArialMT-30" transform="translate(194.628906 0)"/>
      </g>
     </g>
    </g>
    <g id="ytick_8">
     <g id="line2d_42">
      <path d="M 620.5825 282.583009 
L 1111.735 282.583009 
" clip-path="url(#p8441808a8d)" style="fill: none; stroke: #cccccc; stroke-opacity: 0.3; stroke-width: 1.5; stroke-linecap: round"/>
     </g>
     <g id="text_42">
      <!-- 1.785 -->
      <g style="fill: #262626" transform="translate(583.060625 286.161916) scale(0.1 -0.1)">
       <use xlink:href="#ArialMT-31"/>
       <use xlink:href="#ArialMT-2e" transform="translate(55.615234 0)"/>
       <use xlink:href="#ArialMT-37" transform="translate(83.398438 0)"/>
       <use xlink:href="#ArialMT-38" transform="translate(139.013672 0)"/>
       <use xlink:href="#ArialMT-35" transform="translate(194.628906 0)"/>
      </g>
     </g>
    </g>
    <g id="ytick_9">
     <g id="line2d_43">
      <path d="M 620.5825 228.033962 
L 1111.735 228.033962 
" clip-path="url(#p8441808a8d)" style="fill: none; stroke: #cccccc; stroke-opacity: 0.3; stroke-width: 1.5; stroke-linecap: round"/>
     </g>
     <g id="text_43">
      <!-- 1.790 -->
      <g style="fill: #262626" transform="translate(583.060625 231.612868) scale(0.1 -0.1)">
       <use xlink:href="#ArialMT-31"/>
       <use xlink:href="#ArialMT-2e" transform="translate(55.615234 0)"/>
       <use xlink:href="#ArialMT-37" transform="translate(83.398438 0)"/>
       <use xlink:href="#ArialMT-39" transform="translate(139.013672 0)"/>
       <use xlink:href="#ArialMT-30" transform="translate(194.628906 0)"/>
      </g>
     </g>
    </g>
    <g id="ytick_10">
     <g id="line2d_44">
      <path d="M 620.5825 173.484914 
L 1111.735 173.484914 
" clip-path="url(#p8441808a8d)" style="fill: none; stroke: #cccccc; stroke-opacity: 0.3; stroke-width: 1.5; stroke-linecap: round"/>
     </g>
     <g id="text_44">
      <!-- 1.795 -->
      <g style="fill: #262626" transform="translate(583.060625 177.06382) scale(0.1 -0.1)">
       <use xlink:href="#ArialMT-31"/>
       <use xlink:href="#ArialMT-2e" transform="translate(55.615234 0)"/>
       <use xlink:href="#ArialMT-37" transform="translate(83.398438 0)"/>
       <use xlink:href="#ArialMT-39" transform="translate(139.013672 0)"/>
       <use xlink:href="#ArialMT-35" transform="translate(194.628906 0)"/>
      </g>
     </g>
    </g>
    <g id="ytick_11">
     <g id="line2d_45">
      <path d="M 620.5825 118.935866 
L 1111.735 118.935866 
" clip-path="url(#p8441808a8d)" style="fill: none; stroke: #cccccc; stroke-opacity: 0.3; stroke-width: 1.5; stroke-linecap: round"/>
     </g>
     <g id="text_45">
      <!-- 1.800 -->
      <g style="fill: #262626" transform="translate(583.060625 122.514772) scale(0.1 -0.1)">
       <use xlink:href="#ArialMT-31"/>
       <use xlink:href="#ArialMT-2e" transform="translate(55.615234 0)"/>
       <use xlink:href="#ArialMT-38" transform="translate(83.398438 0)"/>
       <use xlink:href="#ArialMT-30" transform="translate(139.013672 0)"/>
       <use xlink:href="#ArialMT-30" transform="translate(194.628906 0)"/>
      </g>
     </g>
    </g>
    <g id="text_46">
     <!-- Test Loss -->
     <g style="fill: #262626" transform="translate(576.675625 246.19875) rotate(-90) scale(0.12 -0.12)">
      <defs>
       <path id="ArialMT-4c" d="M 469 0 
L 469 4581 
L 1075 4581 
L 1075 541 
L 3331 541 
L 3331 0 
L 469 0 
z
" transform="scale(0.015625)"/>
      </defs>
      <use xlink:href="#ArialMT-54"/>
      <use xlink:href="#ArialMT-65" transform="translate(49.958984 0)"/>
      <use xlink:href="#ArialMT-73" transform="translate(105.574219 0)"/>
      <use xlink:href="#ArialMT-74" transform="translate(155.574219 0)"/>
      <use xlink:href="#ArialMT-20" transform="translate(183.357422 0)"/>
      <use xlink:href="#ArialMT-4c" transform="translate(211.140625 0)"/>
      <use xlink:href="#ArialMT-6f" transform="translate(266.755859 0)"/>
      <use xlink:href="#ArialMT-73" transform="translate(322.371094 0)"/>
      <use xlink:href="#ArialMT-73" transform="translate(372.371094 0)"/>
     </g>
    </g>
   </g>
   <g id="line2d_46">
    <path d="M 620.5825 229.560193 
L 625.543636 183.500932 
L 630.504773 206.285492 
L 635.465909 201.983836 
L 640.427045 191.447082 
L 645.388182 205.986737 
L 650.349318 189.665991 
L 655.310455 209.157986 
L 660.271591 177.002359 
L 665.232727 198.246965 
L 670.193864 207.551269 
L 675.155 215.981611 
L 680.116136 195.542745 
L 685.077273 212.937648 
L 690.038409 203.23489 
L 694.999545 229.715545 
L 699.960682 209.613271 
L 704.921818 215.544916 
L 709.882955 198.675231 
L 714.844091 205.946873 
L 719.805227 167.865879 
L 724.766364 153.050288 
L 729.7275 195.456891 
L 734.688636 212.079555 
L 739.649773 171.49301 
L 744.610909 164.194719 
L 749.572045 218.305278 
L 754.533182 202.790396 
L 759.494318 203.901474 
L 764.455455 215.088767 
L 769.416591 217.572419 
L 774.377727 209.329442 
L 779.338864 214.641982 
L 784.3 214.307424 
L 789.261136 199.623143 
L 794.222273 214.774051 
L 799.183409 197.408747 
L 804.144545 192.036118 
L 809.105682 224.369057 
L 814.066818 220.299216 
L 819.027955 209.865466 
L 823.989091 217.383888 
L 828.950227 208.467272 
L 833.911364 207.162702 
L 838.8725 206.810519 
L 843.833636 196.659978 
L 848.794773 219.031434 
L 853.755909 183.36451 
L 858.717045 223.007095 
L 863.678182 221.593739 
L 868.639318 212.235732 
L 873.600455 201.144821 
L 878.561591 212.615184 
L 883.522727 215.679076 
L 888.483864 212.153613 
L 893.445 234.344733 
L 898.406136 210.745095 
L 903.367273 230.920572 
L 908.328409 215.082254 
L 913.289545 186.696152 
L 918.250682 172.332985 
L 923.211818 195.447836 
L 928.172955 201.302636 
L 933.134091 183.892411 
L 938.095227 218.343308 
L 943.056364 189.726241 
L 948.0175 214.568753 
L 952.978636 215.798199 
L 957.939773 187.67738 
L 962.900909 199.656351 
L 967.862045 215.29057 
L 972.823182 218.263486 
L 977.784318 208.928217 
L 982.745455 204.764997 
L 987.706591 222.26947 
L 992.667727 210.54607 
L 997.628864 209.62137 
L 1002.59 228.979365 
L 1007.551136 216.89069 
L 1012.512273 192.691786 
L 1017.473409 222.035087 
L 1022.434545 182.625501 
L 1027.395682 218.721426 
L 1032.356818 215.460195 
L 1037.317955 211.265158 
L 1042.279091 187.182626 
L 1047.240227 211.658581 
L 1052.201364 205.812805 
L 1057.1625 185.886328 
L 1062.123636 225.733687 
L 1067.084773 155.073199 
L 1072.045909 262.12145 
L 1077.007045 211.206056 
L 1081.968182 208.779799 
L 1086.929318 217.853786 
L 1091.890455 206.495808 
L 1096.851591 225.625302 
L 1101.812727 217.337152 
L 1106.773864 211.350005 
L 1111.735 197.002964 
" clip-path="url(#p8441808a8d)" style="fill: none; stroke: #ff0000; stroke-width: 2; stroke-linecap: round"/>
   </g>
   <g id="line2d_47">
    <path d="M 620.5825 244.970115 
L 625.543636 148.171015 
L 630.504773 196.844956 
L 635.465909 174.43048 
L 640.427045 179.341903 
L 645.388182 207.304009 
L 650.349318 165.392808 
L 655.310455 219.489993 
L 660.271591 144.466062 
L 665.232727 199.450547 
L 670.193864 206.617806 
L 675.155 241.301673 
L 680.116136 180.893027 
L 685.077273 253.885264 
L 690.038409 183.111178 
L 694.999545 260.977402 
L 699.960682 180.085209 
L 704.921818 228.125315 
L 709.882955 190.758534 
L 714.844091 107.666035 
L 719.805227 128.372719 
L 724.766364 81.438239 
L 729.7275 174.965962 
L 734.688636 214.537035 
L 739.649773 130.154108 
L 744.610909 124.404465 
L 749.572045 234.401948 
L 754.533182 197.511557 
L 759.494318 193.200801 
L 764.455455 228.586727 
L 769.416591 215.19725 
L 774.377727 257.385848 
L 779.338864 201.29366 
L 784.3 216.338981 
L 789.261136 175.346674 
L 794.222273 202.158513 
L 799.183409 172.092574 
L 804.144545 175.268436 
L 809.105682 187.736708 
L 814.066818 246.092932 
L 819.027955 196.969928 
L 823.989091 270.648537 
L 828.950227 243.897197 
L 833.911364 248.436659 
L 838.8725 196.079749 
L 843.833636 176.725251 
L 848.794773 212.810578 
L 853.755909 142.084246 
L 858.717045 244.309868 
L 863.678182 208.08807 
L 868.639318 223.828223 
L 873.600455 215.22589 
L 878.561591 221.792917 
L 883.522727 171.72654 
L 888.483864 190.546299 
L 893.445 250.151411 
L 898.406136 227.516649 
L 903.367273 236.52592 
L 908.328409 214.984755 
L 913.289545 169.313268 
L 918.250682 135.667294 
L 923.211818 171.992641 
L 928.172955 196.253088 
L 933.134091 156.257197 
L 938.095227 227.782427 
L 943.056364 163.704337 
L 948.0175 221.647762 
L 952.978636 209.473738 
L 957.939773 148.500161 
L 962.900909 215.191089 
L 967.862045 262.957542 
L 972.823182 220.398871 
L 977.784318 206.644841 
L 982.745455 187.905283 
L 987.706591 221.442554 
L 992.667727 206.453195 
L 997.628864 197.608547 
L 1002.59 247.211194 
L 1007.551136 226.127377 
L 1012.512273 180.104425 
L 1017.473409 221.136397 
L 1022.434545 159.264649 
L 1027.395682 217.871314 
L 1032.356818 150.348914 
L 1037.317955 223.457087 
L 1042.279091 152.415842 
L 1047.240227 211.922592 
L 1052.201364 169.106059 
L 1057.1625 168.568111 
L 1062.123636 243.120569 
L 1067.084773 98.913028 
L 1072.045909 296.962284 
L 1077.007045 211.702232 
L 1081.968182 217.032711 
L 1086.929318 234.993016 
L 1091.890455 126.583715 
L 1096.851591 241.825568 
L 1101.812727 211.670662 
L 1106.773864 221.162652 
L 1111.735 185.337587 
" clip-path="url(#p8441808a8d)" style="fill: none; stroke-dasharray: 7.4,3.2; stroke-dashoffset: 0; stroke: #0000ff; stroke-width: 2"/>
   </g>
   <g id="line2d_48">
    <path d="M 620.5825 254.102589 
L 625.543636 203.296104 
L 630.504773 321.436687 
L 635.465909 280.811659 
L 640.427045 215.515891 
L 645.388182 199.584757 
L 650.349318 246.211395 
L 655.310455 167.689589 
L 660.271591 167.74294 
L 665.232727 201.35332 
L 670.193864 218.004118 
L 675.155 197.444021 
L 680.116136 234.208806 
L 685.077273 225.6959 
L 690.038409 226.760486 
L 694.999545 166.229272 
L 699.960682 272.456024 
L 704.921818 161.250304 
L 709.882955 197.573674 
L 714.844091 215.633267 
L 719.805227 240.129344 
L 724.766364 235.949042 
L 729.7275 182.102908 
L 734.688636 213.880874 
L 739.649773 244.988145 
L 744.610909 260.621403 
L 749.572045 270.977882 
L 754.533182 233.645251 
L 759.494318 147.862162 
L 764.455455 192.654392 
L 769.416591 313.894244 
L 774.377727 119.335224 
L 779.338864 218.198801 
L 784.3 185.372637 
L 789.261136 209.519252 
L 794.222273 224.310431 
L 799.183409 130.064046 
L 804.144545 201.992565 
L 809.105682 185.854104 
L 814.066818 184.239379 
L 819.027955 252.38005 
L 823.989091 225.981756 
L 828.950227 190.521292 
L 833.911364 213.609019 
L 838.8725 179.260125 
L 843.833636 227.974463 
L 848.794773 247.467808 
L 853.755909 216.308472 
L 858.717045 246.146609 
L 863.678182 214.420037 
L 868.639318 161.662263 
L 873.600455 224.52841 
L 878.561591 246.713111 
L 883.522727 215.123926 
L 888.483864 199.665432 
L 893.445 201.130393 
L 898.406136 248.990069 
L 903.367273 313.358868 
L 908.328409 237.928808 
L 913.289545 200.928894 
L 918.250682 172.757814 
L 923.211818 226.843106 
L 928.172955 216.217139 
L 933.134091 245.56993 
L 938.095227 220.209891 
L 943.056364 234.636658 
L 948.0175 217.056128 
L 952.978636 216.137474 
L 957.939773 212.118479 
L 962.900909 205.376901 
L 967.862045 149.668662 
L 972.823182 223.357527 
L 977.784318 226.459383 
L 982.745455 275.019207 
L 987.706591 203.368216 
L 992.667727 228.813109 
L 997.628864 259.05727 
L 1002.59 157.825594 
L 1007.551136 214.390418 
L 1012.512273 153.019373 
L 1017.473409 161.946994 
L 1022.434545 222.567511 
L 1027.395682 250.753017 
L 1032.356818 286.573619 
L 1037.317955 258.63429 
L 1042.279091 220.881386 
L 1047.240227 194.478169 
L 1052.201364 149.551702 
L 1057.1625 177.58214 
L 1062.123636 173.524053 
L 1067.084773 255.390248 
L 1072.045909 204.242942 
L 1077.007045 178.612064 
L 1081.968182 249.005076 
L 1086.929318 194.876452 
L 1091.890455 232.112507 
L 1096.851591 187.215854 
L 1101.812727 215.264446 
L 1106.773864 197.447557 
L 1111.735 246.480226 
" clip-path="url(#p8441808a8d)" style="fill: none; stroke-dasharray: 7.4,3.2; stroke-dashoffset: 0; stroke: #008000; stroke-width: 2"/>
   </g>
   <g id="line2d_49">
    <path d="M 620.5825 271.596698 
L 625.543636 187.198202 
L 630.504773 163.831082 
L 635.465909 208.394744 
L 640.427045 194.434308 
L 645.388182 223.630647 
L 650.349318 240.035521 
L 655.310455 215.624802 
L 660.271591 188.328086 
L 665.232727 281.01574 
L 670.193864 192.764381 
L 675.155 270.834539 
L 680.116136 225.202868 
L 685.077273 198.457698 
L 690.038409 236.973965 
L 694.999545 247.481805 
L 699.960682 265.767383 
L 704.921818 206.217917 
L 709.882955 215.824423 
L 714.844091 188.350633 
L 719.805227 211.867265 
L 724.766364 189.941576 
L 729.7275 190.898246 
L 734.688636 203.927315 
L 739.649773 200.85305 
L 744.610909 271.244657 
L 749.572045 153.075635 
L 754.533182 154.402376 
L 759.494318 192.763612 
L 764.455455 242.53322 
L 769.416591 128.437879 
L 774.377727 245.589419 
L 779.338864 230.084747 
L 784.3 295.199403 
L 789.261136 173.36736 
L 794.222273 182.664178 
L 799.183409 227.698438 
L 804.144545 144.88574 
L 809.105682 225.106284 
L 814.066818 187.376382 
L 819.027955 242.095875 
L 823.989091 222.001708 
L 828.950227 202.549114 
L 833.911364 183.998991 
L 838.8725 197.393969 
L 843.833636 194.798306 
L 848.794773 222.344537 
L 853.755909 214.574675 
L 858.717045 234.634016 
L 863.678182 267.077563 
L 868.639318 263.989284 
L 873.600455 229.325895 
L 878.561591 262.445142 
L 883.522727 206.982985 
L 888.483864 232.185682 
L 893.445 132.449338 
L 898.406136 223.617252 
L 903.367273 196.418609 
L 908.328409 198.383519 
L 913.289545 205.795917 
L 918.250682 159.393415 
L 923.211818 182.994962 
L 928.172955 142.676491 
L 933.134091 226.037864 
L 938.095227 209.570311 
L 943.056364 232.529479 
L 948.0175 203.67749 
L 952.978636 277.718299 
L 957.939773 170.729827 
L 962.900909 205.290667 
L 967.862045 298.269391 
L 972.823182 203.503203 
L 977.784318 227.63293 
L 982.745455 190.648921 
L 987.706591 206.513914 
L 992.667727 237.789924 
L 997.628864 245.775611 
L 1002.59 215.572682 
L 1007.551136 222.347118 
L 1012.512273 250.436687 
L 1017.473409 195.318038 
L 1022.434545 258.190332 
L 1027.395682 260.327122 
L 1032.356818 237.821352 
L 1037.317955 197.148121 
L 1042.279091 152.237915 
L 1047.240227 268.572397 
L 1052.201364 308.937274 
L 1057.1625 162.714371 
L 1062.123636 360.278011 
L 1067.084773 227.128492 
L 1072.045909 218.697483 
L 1077.007045 236.735243 
L 1081.968182 191.133639 
L 1086.929318 222.788335 
L 1091.890455 196.861661 
L 1096.851591 220.199559 
L 1101.812727 183.077236 
L 1106.773864 222.67959 
L 1111.735 243.634289 
" clip-path="url(#p8441808a8d)" style="fill: none; stroke-dasharray: 7.4,3.2; stroke-dashoffset: 0; stroke: #ffa500; stroke-width: 2"/>
   </g>
   <g id="patch_9">
    <path d="M 620.5825 374.22 
L 620.5825 67.49625 
" style="fill: none; stroke: #262626; stroke-width: 1.875; stroke-linejoin: miter; stroke-linecap: square"/>
   </g>
   <g id="patch_10">
    <path d="M 1111.735 374.22 
L 1111.735 67.49625 
" style="fill: none; stroke: #262626; stroke-width: 1.875; stroke-linejoin: miter; stroke-linecap: square"/>
   </g>
   <g id="patch_11">
    <path d="M 620.5825 374.22 
L 1111.735 374.22 
" style="fill: none; stroke: #262626; stroke-width: 1.875; stroke-linejoin: miter; stroke-linecap: square"/>
   </g>
   <g id="patch_12">
    <path d="M 620.5825 67.49625 
L 1111.735 67.49625 
" style="fill: none; stroke: #262626; stroke-width: 1.875; stroke-linejoin: miter; stroke-linecap: square"/>
   </g>
   <g id="text_47">
    <!-- Hierarchical Test Loss -->
    <g style="fill: #262626" transform="translate(797.819063 61.49625) scale(0.14 -0.14)">
     <use xlink:href="#ArialMT-48"/>
     <use xlink:href="#ArialMT-69" transform="translate(72.216797 0)"/>
     <use xlink:href="#ArialMT-65" transform="translate(94.433594 0)"/>
     <use xlink:href="#ArialMT-72" transform="translate(150.048828 0)"/>
     <use xlink:href="#ArialMT-61" transform="translate(183.349609 0)"/>
     <use xlink:href="#ArialMT-72" transform="translate(238.964844 0)"/>
     <use xlink:href="#ArialMT-63" transform="translate(272.265625 0)"/>
     <use xlink:href="#ArialMT-68" transform="translate(322.265625 0)"/>
     <use xlink:href="#ArialMT-69" transform="translate(377.880859 0)"/>
     <use xlink:href="#ArialMT-63" transform="translate(400.097656 0)"/>
     <use xlink:href="#ArialMT-61" transform="translate(450.097656 0)"/>
     <use xlink:href="#ArialMT-6c" transform="translate(505.712891 0)"/>
     <use xlink:href="#ArialMT-20" transform="translate(527.929688 0)"/>
     <use xlink:href="#ArialMT-54" transform="translate(553.962891 0)"/>
     <use xlink:href="#ArialMT-65" transform="translate(603.921875 0)"/>
     <use xlink:href="#ArialMT-73" transform="translate(659.537109 0)"/>
     <use xlink:href="#ArialMT-74" transform="translate(709.537109 0)"/>
     <use xlink:href="#ArialMT-20" transform="translate(737.320312 0)"/>
     <use xlink:href="#ArialMT-4c" transform="translate(765.103516 0)"/>
     <use xlink:href="#ArialMT-6f" transform="translate(820.71875 0)"/>
     <use xlink:href="#ArialMT-73" transform="translate(876.333984 0)"/>
     <use xlink:href="#ArialMT-73" transform="translate(926.333984 0)"/>
    </g>
   </g>
   <g id="legend_2">
    <g id="patch_13">
     <path d="M 807.087656 132.316562 
L 925.229844 132.316562 
Q 927.229844 132.316562 927.229844 130.316562 
L 927.229844 74.49625 
Q 927.229844 72.49625 925.229844 72.49625 
L 807.087656 72.49625 
Q 805.087656 72.49625 805.087656 74.49625 
L 805.087656 130.316562 
Q 805.087656 132.316562 807.087656 132.316562 
z
" style="fill: #ffffff; opacity: 0.8; stroke: #cccccc; stroke-width: 1.5; stroke-linejoin: miter"/>
    </g>
    <g id="line2d_50">
     <path d="M 809.087656 80.275937 
L 819.087656 80.275937 
L 829.087656 80.275937 
" style="fill: none; stroke: #ff0000; stroke-width: 2; stroke-linecap: round"/>
    </g>
    <g id="text_48">
     <!-- Cloud (Centralized) -->
     <g style="fill: #262626" transform="translate(837.087656 83.775937) scale(0.1 -0.1)">
      <use xlink:href="#ArialMT-43"/>
      <use xlink:href="#ArialMT-6c" transform="translate(72.216797 0)"/>
      <use xlink:href="#ArialMT-6f" transform="translate(94.433594 0)"/>
      <use xlink:href="#ArialMT-75" transform="translate(150.048828 0)"/>
      <use xlink:href="#ArialMT-64" transform="translate(205.664062 0)"/>
      <use xlink:href="#ArialMT-20" transform="translate(261.279297 0)"/>
      <use xlink:href="#ArialMT-28" transform="translate(289.0625 0)"/>
      <use xlink:href="#ArialMT-43" transform="translate(322.363281 0)"/>
      <use xlink:href="#ArialMT-65" transform="translate(394.580078 0)"/>
      <use xlink:href="#ArialMT-6e" transform="translate(450.195312 0)"/>
      <use xlink:href="#ArialMT-74" transform="translate(505.810547 0)"/>
      <use xlink:href="#ArialMT-72" transform="translate(533.59375 0)"/>
      <use xlink:href="#ArialMT-61" transform="translate(566.894531 0)"/>
      <use xlink:href="#ArialMT-6c" transform="translate(622.509766 0)"/>
      <use xlink:href="#ArialMT-69" transform="translate(644.726562 0)"/>
      <use xlink:href="#ArialMT-7a" transform="translate(666.943359 0)"/>
      <use xlink:href="#ArialMT-65" transform="translate(716.943359 0)"/>
      <use xlink:href="#ArialMT-64" transform="translate(772.558594 0)"/>
      <use xlink:href="#ArialMT-29" transform="translate(828.173828 0)"/>
     </g>
    </g>
    <g id="line2d_51">
     <path d="M 809.087656 94.538437 
L 819.087656 94.538437 
L 829.087656 94.538437 
" style="fill: none; stroke-dasharray: 7.4,3.2; stroke-dashoffset: 0; stroke: #0000ff; stroke-width: 2"/>
    </g>
    <g id="text_49">
     <!-- Server 0 -->
     <g style="fill: #262626" transform="translate(837.087656 98.038437) scale(0.1 -0.1)">
      <use xlink:href="#ArialMT-53"/>
      <use xlink:href="#ArialMT-65" transform="translate(66.699219 0)"/>
      <use xlink:href="#ArialMT-72" transform="translate(122.314453 0)"/>
      <use xlink:href="#ArialMT-76" transform="translate(155.615234 0)"/>
      <use xlink:href="#ArialMT-65" transform="translate(205.615234 0)"/>
      <use xlink:href="#ArialMT-72" transform="translate(261.230469 0)"/>
      <use xlink:href="#ArialMT-20" transform="translate(294.53125 0)"/>
      <use xlink:href="#ArialMT-30" transform="translate(322.314453 0)"/>
     </g>
    </g>
    <g id="line2d_52">
     <path d="M 809.087656 108.68375 
L 819.087656 108.68375 
L 829.087656 108.68375 
" style="fill: none; stroke-dasharray: 7.4,3.2; stroke-dashoffset: 0; stroke: #008000; stroke-width: 2"/>
    </g>
    <g id="text_50">
     <!-- Server 1 -->
     <g style="fill: #262626" transform="translate(837.087656 112.18375) scale(0.1 -0.1)">
      <use xlink:href="#ArialMT-53"/>
      <use xlink:href="#ArialMT-65" transform="translate(66.699219 0)"/>
      <use xlink:href="#ArialMT-72" transform="translate(122.314453 0)"/>
      <use xlink:href="#ArialMT-76" transform="translate(155.615234 0)"/>
      <use xlink:href="#ArialMT-65" transform="translate(205.615234 0)"/>
      <use xlink:href="#ArialMT-72" transform="translate(261.230469 0)"/>
      <use xlink:href="#ArialMT-20" transform="translate(294.53125 0)"/>
      <use xlink:href="#ArialMT-31" transform="translate(322.314453 0)"/>
     </g>
    </g>
    <g id="line2d_53">
     <path d="M 809.087656 122.829063 
L 819.087656 122.829063 
L 829.087656 122.829063 
" style="fill: none; stroke-dasharray: 7.4,3.2; stroke-dashoffset: 0; stroke: #ffa500; stroke-width: 2"/>
    </g>
    <g id="text_51">
     <!-- Server 2 -->
     <g style="fill: #262626" transform="translate(837.087656 126.329063) scale(0.1 -0.1)">
      <use xlink:href="#ArialMT-53"/>
      <use xlink:href="#ArialMT-65" transform="translate(66.699219 0)"/>
      <use xlink:href="#ArialMT-72" transform="translate(122.314453 0)"/>
      <use xlink:href="#ArialMT-76" transform="translate(155.615234 0)"/>
      <use xlink:href="#ArialMT-65" transform="translate(205.615234 0)"/>
      <use xlink:href="#ArialMT-72" transform="translate(261.230469 0)"/>
      <use xlink:href="#ArialMT-20" transform="translate(294.53125 0)"/>
      <use xlink:href="#ArialMT-32" transform="translate(322.314453 0)"/>
     </g>
    </g>
   </g>
  </g>
  <g id="text_52">
   <!-- HierFL Hierarchical Overview -->
   <g style="fill: #262626" transform="translate(459.78125 18.6525) scale(0.16 -0.16)">
    <defs>
     <path id="ArialMT-46" d="M 525 0 
L 525 4581 
L 3616 4581 
L 3616 4041 
L 1131 4041 
L 1131 2622 
L 3281 2622 
L 3281 2081 
L 1131 2081 
L 1131 0 
L 525 0 
z
" transform="scale(0.015625)"/>
     <path id="ArialMT-4f" d="M 309 2231 
Q 309 3372 921 4017 
Q 1534 4663 2503 4663 
Q 3138 4663 3647 4359 
Q 4156 4056 4423 3514 
Q 4691 2972 4691 2284 
Q 4691 1588 4409 1038 
Q 4128 488 3612 205 
Q 3097 -78 2500 -78 
Q 1853 -78 1343 234 
Q 834 547 571 1087 
Q 309 1628 309 2231 
z
M 934 2222 
Q 934 1394 1379 917 
Q 1825 441 2497 441 
Q 3181 441 3623 922 
Q 4066 1403 4066 2288 
Q 4066 2847 3877 3264 
Q 3688 3681 3323 3911 
Q 2959 4141 2506 4141 
Q 1863 4141 1398 3698 
Q 934 3256 934 2222 
z
" transform="scale(0.015625)"/>
     <path id="ArialMT-77" d="M 1034 0 
L 19 3319 
L 600 3319 
L 1128 1403 
L 1325 691 
Q 1338 744 1497 1375 
L 2025 3319 
L 2603 3319 
L 3100 1394 
L 3266 759 
L 3456 1400 
L 4025 3319 
L 4572 3319 
L 3534 0 
L 2950 0 
L 2422 1988 
L 2294 2553 
L 1622 0 
L 1034 0 
z
" transform="scale(0.015625)"/>
    </defs>
    <use xlink:href="#ArialMT-48"/>
    <use xlink:href="#ArialMT-69" transform="translate(72.216797 0)"/>
    <use xlink:href="#ArialMT-65" transform="translate(94.433594 0)"/>
    <use xlink:href="#ArialMT-72" transform="translate(150.048828 0)"/>
    <use xlink:href="#ArialMT-46" transform="translate(183.349609 0)"/>
    <use xlink:href="#ArialMT-4c" transform="translate(244.433594 0)"/>
    <use xlink:href="#ArialMT-20" transform="translate(296.298828 0)"/>
    <use xlink:href="#ArialMT-48" transform="translate(324.082031 0)"/>
    <use xlink:href="#ArialMT-69" transform="translate(396.298828 0)"/>
    <use xlink:href="#ArialMT-65" transform="translate(418.515625 0)"/>
    <use xlink:href="#ArialMT-72" transform="translate(474.130859 0)"/>
    <use xlink:href="#ArialMT-61" transform="translate(507.431641 0)"/>
    <use xlink:href="#ArialMT-72" transform="translate(563.046875 0)"/>
    <use xlink:href="#ArialMT-63" transform="translate(596.347656 0)"/>
    <use xlink:href="#ArialMT-68" transform="translate(646.347656 0)"/>
    <use xlink:href="#ArialMT-69" transform="translate(701.962891 0)"/>
    <use xlink:href="#ArialMT-63" transform="translate(724.179688 0)"/>
    <use xlink:href="#ArialMT-61" transform="translate(774.179688 0)"/>
    <use xlink:href="#ArialMT-6c" transform="translate(829.794922 0)"/>
    <use xlink:href="#ArialMT-20" transform="translate(852.011719 0)"/>
    <use xlink:href="#ArialMT-4f" transform="translate(879.794922 0)"/>
    <use xlink:href="#ArialMT-76" transform="translate(957.578125 0)"/>
    <use xlink:href="#ArialMT-65" transform="translate(1007.578125 0)"/>
    <use xlink:href="#ArialMT-72" transform="translate(1063.193359 0)"/>
    <use xlink:href="#ArialMT-76" transform="translate(1096.494141 0)"/>
    <use xlink:href="#ArialMT-69" transform="translate(1146.494141 0)"/>
    <use xlink:href="#ArialMT-65" transform="translate(1168.710938 0)"/>
    <use xlink:href="#ArialMT-77" transform="translate(1224.326172 0)"/>
   </g>
  </g>
 </g>
 <defs>
  <clipPath id="p3ecd7f53a0">
   <rect x="48.715" y="67.49625" width="491.1525" height="306.72375"/>
  </clipPath>
  <clipPath id="p8441808a8d">
   <rect x="620.5825" y="67.49625" width="491.1525" height="306.72375"/>
  </clipPath>
 </defs>
</svg>
